<?xml version="1.0" encoding="UTF-8" standalone="no"?>
<svg width="282px" height="87px" viewBox="0 0 282 87" version="1.1" xmlns="http://www.w3.org/2000/svg" xmlns:xlink="http://www.w3.org/1999/xlink" xmlns:sketch="http://www.bohemiancoding.com/sketch/ns">
    <!-- Generator: Sketch Beta 3.1 (8740) - http://www.bohemiancoding.com/sketch -->
    <title>logo-moo</title>
    <desc>Created with Sketch Beta.</desc>
    <defs></defs>
    <g id="Page-1" stroke="none" stroke-width="1" fill="none" fill-rule="evenodd" sketch:type="MSPage">
        <g id="Artboard-1" sketch:type="MSArtboardGroup" transform="translate(-859.000000, -1539.000000)">
            <g id="Imported-Layers" sketch:type="MSLayerGroup" transform="translate(860.000000, 1540.000000)">
                <path d="M28.1730871,76.9718183 C27.9900178,76.8218723 27.7805805,76.6894326 27.6178522,76.5120852 C25.681687,74.3960947 23.7583291,72.2664035 21.8146302,70.1565022 C21.4364376,69.7462436 21.3008307,69.3321793 21.4409579,68.7826307 C21.7505936,67.5594664 22.0255743,66.3264072 22.3171291,65.0979148 C23.2852117,61.0196857 24.2585679,56.9422177 25.223637,52.8632273 C26.5254633,47.3593686 27.8190025,41.8532264 29.1208287,36.3501288 C30.5153197,30.4550402 31.916591,24.5614739 33.3125887,18.6671464 C33.8128275,16.5549616 34.3092994,14.4420157 34.8027579,12.3275475 C34.857754,12.0915917 34.8811085,11.8487856 34.9338445,11.520731 C34.6437965,11.4446162 34.4155248,11.3327275 34.1864998,11.3319664 C30.7322907,11.325116 27.2780816,11.3319664 23.8238725,11.3441447 C23.5827935,11.3449059 23.3409612,11.4194984 23.1420711,11.4529889 C22.7375105,11.8997825 22.702102,12.4166018 22.5875895,12.9029751 C21.2880234,18.4068339 19.9884573,23.9114538 18.6888911,29.4160736 C17.5746544,34.1336668 16.4664447,38.8520212 15.3439209,43.5665698 C13.787455,50.0995002 12.2166751,56.629386 10.6579491,63.1615552 C10.3068779,64.6351371 9.98669492,66.1148081 9.64014395,67.5891511 C9.53919214,68.0184384 9.3968049,68.4370696 9.28304577,68.8275384 C9.14743887,68.841239 9.09696297,68.8549397 9.04950055,68.8480894 C9.00203814,68.841239 8.94854875,68.8222103 8.91238691,68.7917644 C8.79787442,68.6935764 8.68034843,68.5969106 8.58391686,68.4834996 C6.5935089,66.1475375 4.60536105,63.810053 2.68878351,61.5570559 C2.63604749,61.3941703 2.61570645,61.3469792 2.60666599,61.2975046 C2.59837891,61.2487911 2.59084519,61.1947496 2.60139239,61.1467973 C2.75206673,60.4564364 2.89068712,59.763792 3.06094911,59.0795203 C7.70171863,40.4123739 12.3455016,21.7459887 16.9930515,3.08112573 C17.02846,2.94031341 17.1143443,2.81167946 17.1768742,2.67543403 C17.7012209,2.3747807 18.2639895,2.50037007 18.8018969,2.49960892 C24.8092826,2.48895285 30.8166683,2.49275859 36.8248075,2.49275859 C46.135728,2.49275859 55.4474019,2.49199744 64.7590758,2.49504203 C65.3542394,2.49504203 65.9478963,2.51635417 66.4549154,2.52701023 C66.8489288,2.92585161 66.6862005,3.27217379 66.6055897,3.60403417 C66.0435745,5.91031159 65.4785457,8.2150667 64.9089967,10.5190607 C63.5295732,16.1074068 62.1448761,21.6949918 60.7654525,27.2825768 C59.6158074,31.938517 58.4691757,36.5952184 57.3232973,41.2526809 C55.7306696,47.7231972 54.1395486,54.1937135 52.5461676,60.6642297 C51.5554838,64.6853728 50.5632933,68.7049936 49.5658292,72.7238533 C49.4942589,73.0123282 49.378993,73.2901471 49.2787946,73.588517 C48.8199913,73.7095395 48.3935829,73.8229505 47.9837487,73.9317946 C47.7095214,74.464598 47.4473481,74.9524936 47.6161033,75.5964245 C47.9551206,75.7387591 48.310712,75.8879441 48.742394,76.0698584 C47.9920358,79.0908534 47.2529782,82.0677019 46.5297414,84.9821363 C46.1266875,85.176229 45.9639592,84.9440789 45.8110248,84.7667315 C43.9419097,82.5890881 42.0901221,80.3962217 40.2066929,78.2322789 C39.8322672,77.8014693 39.7403558,77.3638094 39.8367874,76.8378564 C39.900824,76.4922953 39.9558201,76.145212 40.0281438,75.7204916 C39.6695389,75.5636952 39.325248,75.4129879 38.9892443,75.2660864 C39.0148589,74.2613715 39.0141055,74.2606104 39.762957,74.1137089 C39.9550668,74.0764126 40.1486833,74.047489 40.4296909,74.0002979 C40.602213,73.4279148 40.80487,72.8654267 40.9419837,72.2877156 C42.4246191,66.047066 43.8967074,59.804894 45.3710557,53.562722 C46.5659032,48.5010901 47.7539703,43.4371747 48.9578583,38.3770651 C50.3719369,32.4340241 51.8033431,26.4947889 53.2189285,20.5525091 C53.8397067,17.9493841 54.4454175,15.3432145 55.0428413,12.7347615 C55.129479,12.3572323 55.1324925,11.959152 55.1814617,11.50018 C54.8575119,11.433199 54.62472,11.3449059 54.3904214,11.3418613 C51.0416843,11.2901033 47.6937006,11.2771637 44.2990078,11.3509951 C44.157374,11.6760051 43.9991659,11.9309896 43.9321158,12.2088085 C41.9673225,20.3568942 40.0078028,28.505741 38.0565701,36.6568713 C36.6221505,42.6478646 35.1990314,48.6419024 33.7713921,54.6344179 C32.1102075,61.608814 30.4535432,68.5847323 28.7765379,75.5560837 C28.6635321,76.026473 28.6718192,76.5744993 28.1730871,76.9718183 L28.1730871,76.9718183 Z M194.98841,30.6224927 C195.032859,30.4344892 194.993684,30.2259348 194.993684,29.9641 C194.558988,29.8575393 194.142374,29.7563067 193.666243,29.6398511 C193.924649,28.6374196 194.85205,29.2592772 195.467555,28.5955565 C197.088057,21.9020239 198.781637,14.9489401 200.423987,8.04000274 C199.476999,6.91730994 194.641106,2.73860928 193.68357,2.1974333 C193.238328,2.48666941 193.303118,2.99968293 193.202919,3.41907529 C192.033686,8.3284777 190.888562,13.2439693 189.727616,18.1564163 C189.649265,18.4890378 189.502358,18.8056753 189.359217,19.2090835 C188.731658,19.242574 188.141015,19.3004212 187.549618,19.3011824 C183.546201,19.3087939 179.542784,19.2996601 175.538614,19.3087939 C174.953244,19.3103162 174.340753,19.1991886 173.75915,19.5561668 C173.681552,19.7921226 173.585121,20.0235115 173.527865,20.2640342 C173.213709,21.5899534 172.909347,22.9181561 172.599711,24.2440753 C172.278021,25.6209914 171.964618,26.9994298 171.621081,28.3702568 C171.551771,28.6473145 171.365688,28.8946875 171.282817,29.056812 C170.814973,29.3186467 170.302681,29.026366 169.942569,29.4723986 C170.396099,29.5949433 170.75847,29.6923702 171.248162,29.8248099 C170.088723,34.8849196 168.884082,39.8293348 167.716356,44.7821226 C166.536576,49.7859073 165.31084,54.7782749 164.164208,59.8490406 C170.677106,65.4678326 177.136515,71.0386723 183.837003,76.8195888 C187.601601,61.2343293 191.297642,45.928411 194.98841,30.6224927 L194.98841,30.6224927 Z M177.924542,29.7821857 C177.7588,29.7311888 177.513201,29.6017937 177.493613,29.4769655 C177.445397,29.1740287 177.701544,29.0575731 177.965977,29.0248437 C178.308008,28.9822195 178.651545,28.9578628 179.065146,28.9182831 C179.311499,28.0741703 179.548811,27.2635481 179.775576,26.4841329 C180.953096,26.2055528 186.063969,26.1850018 187.508936,26.4567315 C187.624955,27.3556469 187.334154,28.186059 186.982329,29.0773629 C186.611671,29.1451051 186.231218,29.2143695 185.777688,29.2965735 C185.956237,29.7448894 186.418807,29.5272012 186.657626,29.7745742 C186.903225,30.1924443 186.726183,30.6354322 186.623724,31.0647195 C184.896997,38.273549 183.158968,45.4793339 181.43224,52.6874022 C180.856664,55.0895842 180.320264,57.5009 179.735647,59.9007986 C179.609834,60.4191402 179.618875,61.0151188 179.102062,61.4771354 C178.845915,61.3271893 178.573948,61.2145395 178.358484,61.0333863 C176.783184,59.7097505 175.241785,58.3434905 173.642377,57.0510618 C172.908593,56.4581277 172.791067,55.8446427 173.014065,54.944205 C173.885716,51.4200914 174.674496,47.8754267 175.502452,44.3398958 C176.388417,40.5607977 177.282669,36.7824607 178.175415,33.0041237 C178.337389,32.3183297 178.516692,31.6355802 178.669626,30.9467416 C178.734416,30.6575055 178.752497,30.3583745 178.814274,29.8986413 C178.405193,29.8499278 178.15432,29.8522113 177.924542,29.7821857 L177.924542,29.7821857 Z M126.514459,56.9467845 C126.099351,58.6136979 125.61418,60.263866 125.263108,61.9437189 C125.076272,62.8350228 124.647604,63.3503198 123.839989,63.7118649 C121.645418,64.6952677 119.477214,65.7410846 117.29771,66.7610225 C111.123829,69.6488167 104.952961,72.5442224 98.7707934,75.4137491 C98.1296741,75.7113578 97.707786,76.0774698 97.5706723,76.8096939 C97.1902196,78.8457639 96.7600444,80.8711778 96.3645243,82.9034421 C96.3215821,83.124936 96.3788383,83.3662198 96.3961659,83.7323319 C97.105842,83.4309174 97.7032657,83.191917 98.2901423,82.9277988 C105.737975,79.5718988 113.185054,76.2144764 120.630626,72.8540095 C124.011005,71.3286696 127.379329,69.7751672 130.774022,68.2825567 C131.503286,67.9621135 131.826482,67.5183644 131.995991,66.7404715 C132.675532,63.6327056 133.430411,60.5432072 134.164195,57.4483808 C135.747782,50.7662655 137.34041,44.0864337 138.921737,37.4043183 C140.23637,31.8525073 141.54121,26.2976517 142.845296,20.7427961 C142.909333,20.469544 142.922894,20.1848748 142.968849,19.8408361 C142.530387,19.809629 142.186096,19.7654825 141.841052,19.7647213 C134.580809,19.7616767 127.320566,19.7624379 120.05957,19.7692882 C119.723566,19.7692882 119.388316,19.8370303 119.030464,19.8750877 C118.88657,20.3789675 118.747197,20.8074936 118.642478,21.2436312 C117.294696,26.8395888 115.955201,32.4378299 114.607419,38.0345486 C113.933152,40.8325274 113.259637,43.6305062 112.559755,46.4216347 C112.375179,47.1546199 112.426408,47.7650603 112.901033,48.4013798 C113.863088,49.6938085 114.7483,51.0448456 115.6644,52.371526 C116.236962,53.2011769 116.820072,54.0239775 117.375307,54.8650457 C117.679669,55.3270623 118.066902,55.567585 118.62289,55.541706 C118.972455,55.5257219 119.323526,55.5447505 119.673844,55.5455117 C121.475909,55.547034 123.279481,55.5386614 125.081546,55.552362 C125.570484,55.5561678 126.08579,55.454174 126.67116,55.8735663 C126.616164,56.2617516 126.598083,56.6126407 126.514459,56.9467845 L126.514459,56.9467845 Z M133.230014,28.6123017 C132.649164,31.6462363 128.782861,47.1820212 128.381314,48.12965 C127.33262,48.3732173 123.826429,48.4196473 122.098194,48.2072871 C121.43372,47.4819134 120.994504,46.5708196 120.496526,45.7000667 C120.31195,45.3758178 120.293869,45.0485243 120.385027,44.6801288 C120.738358,43.2605885 121.060801,41.8319143 121.402832,40.4093293 C122.333999,36.5343266 123.26592,32.6593238 124.207635,28.7866045 C124.289752,28.4501773 124.441933,28.1297341 124.571513,27.773517 C124.887929,27.7133863 125.176471,27.6113925 125.465012,27.6121537 C127.914977,27.6159594 130.365695,27.6365104 132.816413,27.665434 C132.944486,27.6669563 133.071806,27.7910234 133.268436,27.8953006 C133.257135,28.128973 133.274463,28.3763459 133.230014,28.6123017 L133.230014,28.6123017 Z M246.198096,61.4695239 C247.408011,62.4498821 248.630734,63.4142562 249.830855,64.4075539 C250.043305,64.5849013 250.33712,64.9015387 250.299452,65.0956314 C250.228635,65.4617434 250.319793,65.665731 250.569912,65.8681963 C250.999334,66.2160408 251.412182,66.5867197 251.860438,66.907924 C252.094736,67.0761376 252.388551,67.2580519 252.656752,67.2603353 C253.562305,67.2679468 254.129593,67.7718266 254.639626,68.4363085 C254.846803,68.7065159 255.090142,69.0254368 255.384711,69.1342809 C256.116988,69.4044883 256.666196,69.9175018 257.251566,70.3833242 C259.530515,72.1994225 261.796657,74.0322661 264.072593,75.851409 C264.414623,76.124661 264.786036,76.3606168 265.19361,76.6498529 C265.310382,76.3689894 265.407567,76.1946866 265.454276,76.0074443 C265.896506,74.2453874 266.333461,72.4810471 266.761376,70.7151846 C266.832193,70.4229039 266.881916,70.1161614 266.881916,69.815508 C266.880409,68.6342069 266.871369,68.6342069 267.331679,67.9088332 C267.273669,67.8395687 267.226207,67.7253966 267.15539,67.7078902 C266.683779,67.5921957 266.468315,67.3143768 266.585841,66.82572 C266.713914,66.2898721 266.857808,65.7578299 266.994921,65.2227431 C267.412289,65.0469179 267.770894,64.8954496 268.196549,64.7158187 C270.933549,53.2879477 273.673561,41.8517041 276.40604,30.4139382 C276.436929,30.2814985 276.375906,30.1269856 276.356318,29.969428 C275.925389,29.8484055 275.511035,29.7319499 275.077093,29.6101663 C275.345293,28.6221966 276.295295,29.2813505 276.71869,28.7805154 C276.764645,28.6983114 276.833956,28.6153463 276.858063,28.5217251 C277.51199,25.876737 278.167423,23.2309878 278.804776,20.5814327 C278.857512,20.3637445 278.782928,20.1148492 278.764094,19.8294189 C278.388915,19.8035398 278.094346,19.7662436 277.799778,19.7662436 C270.391874,19.7624379 262.984724,19.7609156 255.57682,19.7654825 C255.242323,19.7662436 254.907073,19.8263743 254.516073,19.8644317 C254.244859,20.958962 253.988713,21.9819444 253.7401,23.0064492 C253.300885,24.8210252 252.870709,26.6386458 252.424713,28.4516996 C252.366704,28.6868942 252.22959,28.9015378 252.144459,29.0918247 C251.700723,29.1763121 251.333831,29.2455766 250.675384,29.3696436 C251.300683,29.5728701 251.64422,29.6847588 252.017893,29.8065424 C250.954132,34.9701681 249.639498,39.9815643 248.453691,45.0241676 C247.264871,50.0812326 245.992426,55.119269 244.834494,60.3118183 C245.3611,60.7601343 245.771688,61.1239629 246.198096,61.4695239 L246.198096,61.4695239 Z M260.154307,30.0394536 C259.90042,29.5918988 259.275122,30.0135746 258.930078,29.4990387 C258.997881,29.3894335 259.061164,29.1458662 259.182457,29.1116146 C259.561403,29.0058151 259.96069,28.9784137 260.461682,28.9053436 C260.695981,28.3055592 260.947607,27.6631506 261.188686,27.0450987 C262.455857,26.8175155 267.840204,26.8144709 269.215108,27.046621 C269.460707,27.7483991 269.074227,28.3656899 268.9228,29.0659457 C268.443655,29.1458662 268.010466,29.2181753 267.581045,29.2897231 C267.575771,29.3521372 267.558443,29.4427138 267.568237,29.4457584 C267.88616,29.5507968 268.206343,29.6474625 268.616931,29.7730519 C268.602617,30.0295587 268.628231,30.3233617 268.564195,30.5958525 C267.722679,34.1823803 266.873629,37.7673858 266.016292,41.350869 C265.241072,44.5895523 264.455306,47.825191 263.673306,51.062352 C263.021639,53.7590981 262.366206,56.4558443 261.7168,59.1533516 C261.551058,59.8399068 261.414697,60.5340735 261.239915,61.2183452 C261.181906,61.4444061 261.047052,61.6506771 260.920486,61.9239291 C260.660572,61.8143238 260.465449,61.7701773 260.315528,61.6628554 C258.434359,60.325519 256.570518,58.9630647 254.676541,57.6447569 C254.039189,57.201769 253.921663,56.7230071 254.110759,55.9717544 C254.947002,52.644778 255.717701,49.3010563 256.518535,45.9657072 C257.613184,41.4018659 258.71612,36.8410691 259.810769,32.2779889 C259.96747,31.6256853 259.954663,31.6226407 259.517708,30.763305 C259.629207,30.4352504 260.267312,30.6065086 260.154307,30.0394536 L260.154307,30.0394536 Z M248.789695,30.3271674 C248.810789,30.2388743 248.756547,30.1315524 248.722645,29.9534439 C248.337672,29.861345 247.921057,29.7623958 247.407258,29.6390899 C247.713127,28.6830885 248.601352,29.2204587 249.14604,28.7386522 C249.923519,26.1477056 250.452386,23.3687555 251.164322,20.6377577 C251.223839,20.4109357 251.171856,20.1536678 251.171856,19.9496802 C251.05207,19.8865049 251.009881,19.8552979 250.963172,19.8415972 C250.867494,19.8141959 250.771062,19.7807054 250.673878,19.7776608 C250.273837,19.7654825 249.873043,19.7586321 249.473003,19.7593933 C242.065099,19.7700493 234.657196,19.7829889 227.250045,19.7959284 C227.201076,19.7959284 227.149094,19.8103902 227.103891,19.8309412 C227.060949,19.8499698 227.024787,19.8857438 226.862059,20.0044828 C226.009996,22.9250064 225.512017,26.0693074 224.613998,28.9418787 C224.158961,29.3460481 223.617287,29.0248437 223.266969,29.4617425 C223.679817,29.5842873 223.99774,29.6786696 224.368399,29.789036 C224.198137,31.1583406 223.934457,32.4188012 223.444012,33.6450101 C222.808919,33.7211248 222.231083,33.7911504 221.631399,33.8626983 C221.524421,34.320148 221.424976,34.7090945 221.349638,35.103369 C221.333818,35.1848118 221.407648,35.2845221 221.451344,35.4055446 C221.746665,35.5280894 222.062328,35.6597679 222.325255,35.7701343 C222.743376,36.4749571 222.740363,37.1287829 222.545993,37.8541566 C222.128625,39.4137482 221.797141,40.9969353 221.418195,42.5671829 C220.116369,47.9660033 218.805502,53.3633014 217.511963,58.7651663 C217.385397,59.2926416 217.174453,59.8284896 217.369576,60.4998218 C218.676676,61.5532502 220.061373,62.6317964 221.399361,63.7674287 C221.959116,64.243146 222.89179,64.4897579 222.696667,65.5584092 C222.680093,65.6520303 222.860902,65.8027376 222.973908,65.8971199 C223.437231,66.2814995 223.903568,66.6651179 224.38422,67.0274242 C224.537907,67.1431186 224.746591,67.2694691 224.919113,67.2565296 C225.762136,67.1918321 226.314358,67.7078902 226.901988,68.1828463 C229.988551,70.6778883 233.079635,73.1683635 236.17298,75.655794 C236.594114,75.9952659 237.038604,76.3073364 237.483846,76.639958 C238.024014,75.4563734 239.555618,69.2164848 239.665611,67.8334795 C238.837655,67.3181826 238.829368,67.3158991 238.998123,66.5737802 C239.098322,66.1323145 239.229408,65.6992215 239.355975,65.2295934 C239.72136,65.0735581 240.083732,64.9198063 240.56363,64.7150576 C243.319463,53.2026992 246.057216,41.7656944 248.789695,30.3271674 L248.789695,30.3271674 Z M241.289127,29.0819298 C240.768547,29.160328 240.344398,29.2242644 239.748481,29.3140799 C240.166603,29.7281442 240.657048,29.4975164 241.006612,29.8864629 C240.994558,30.0371701 241.007366,30.2814985 240.952369,30.5113651 C240.10558,34.0963706 239.25201,37.6798538 238.393919,41.2625758 C236.890189,47.5428052 235.387966,53.8237957 233.867662,60.1002193 C233.729042,60.6741246 233.707947,61.299788 233.280032,61.8995724 C233.011832,61.7823556 232.729318,61.7100466 232.50632,61.552489 C230.664326,60.2471208 228.84418,58.9090232 226.990132,57.6196391 C226.407023,57.2139474 226.245801,56.7823766 226.421337,56.0859265 C227.137793,53.2483681 227.809047,50.3993924 228.493109,47.5534613 C229.342159,44.0224973 230.187442,40.490011 231.037245,36.9461075 C230.894104,36.6249031 230.751717,36.3090269 230.623644,36.021313 C230.254492,35.9071409 229.932802,35.8081917 229.596045,35.7039145 C229.510914,34.9047094 229.812262,34.2691511 230.051081,33.55215 C230.637958,33.4524397 231.217301,33.3534905 231.881021,33.2408406 C232.134907,32.1714282 232.603505,31.1644298 232.564329,29.9709503 C232.12662,29.8544947 231.713019,29.7448894 231.280584,29.6307173 C231.574399,29.0629011 231.574399,29.0629011 232.855131,28.8695696 C233.083402,28.2720687 233.328248,27.6288989 233.562547,27.0161751 C235.126546,26.7931588 240.433296,26.8296939 241.738136,27.1059905 C241.574654,27.825275 241.433021,28.448655 241.289127,29.0819298 L241.289127,29.0819298 Z M56.9255171,60.4039172 C60.433969,63.4926544 63.944681,66.5798693 67.4546396,69.6663231 C69.7576968,71.691737 72.0584939,73.7186732 74.3675781,75.7364757 C74.6116705,75.949597 74.8278882,76.2951581 75.3477147,76.0843202 C75.5194834,75.3528573 75.701046,74.5719198 75.8878822,73.7925046 C77.5121515,67.0182904 79.1439545,60.2448374 80.7621969,53.4691009 C82.3096223,46.9871674 83.8412269,40.5014282 85.3833787,34.0172113 C86.4230316,29.6459402 87.4694649,25.2761915 88.5030908,20.9041594 C88.5791814,20.582955 88.572401,20.2404386 88.6145898,19.8020175 C86.6136347,19.7297085 84.7173982,19.7746162 82.8226684,19.7670048 C80.9204049,19.7601544 79.0181415,19.7654825 77.115878,19.7654825 C75.163892,19.7654825 73.2111526,19.7502595 71.2591666,19.7692882 C69.3689571,19.7898392 67.4742273,19.6779505 65.6231931,19.8423584 C65.2223994,20.8874141 64.114943,25.2662966 63.9009854,26.659958 C63.8640702,26.8997195 63.8957118,27.1493759 63.8957118,27.3754368 C64.461494,27.7019691 65.0242626,27.5847524 65.5644301,27.5862747 C69.4691555,27.5954084 73.3738809,27.5847524 77.2778529,27.5969307 C77.8135002,27.598453 78.3815424,27.4614465 78.8832879,27.8115744 C79.0919719,28.3283936 78.8900683,28.8162893 78.7770625,29.2950512 C78.3943497,30.9162957 77.9882824,32.5322122 77.5761881,34.1466064 C77.4661958,34.5766548 77.3027142,34.9930026 77.136219,35.4976435 C76.552356,35.5189556 76.0114351,35.5562518 75.4690075,35.557013 C71.464837,35.5615799 67.4599132,35.5547295 63.4557428,35.5653856 C62.9163287,35.5669079 62.3565735,35.4534969 61.8133925,35.722182 C61.7184677,35.9467206 61.5881344,36.1697368 61.5301248,36.4117818 C59.706212,43.9684558 57.8883261,51.5274132 56.0764672,59.0878929 C56.0433189,59.2271829 56.0847543,59.3855016 56.0968083,59.6366804 C56.4094575,59.9266776 56.661837,60.1717672 56.9255171,60.4039172 L56.9255171,60.4039172 Z M70.3031379,61.191705 C68.4264891,59.5278363 66.5588807,57.8548337 64.6528504,56.1521464 C64.8637944,55.2090844 65.0483705,54.3284366 65.2578078,53.4538779 C66.1287055,49.8247259 67.0041234,46.1955738 67.8855682,42.5687052 C68.1454815,41.4985316 68.1613023,41.4734137 69.1482192,41.4635188 C71.0489759,41.443729 72.9497326,41.4482959 74.8504894,41.4604742 C75.137524,41.4619965 75.4238052,41.5586623 75.7040595,41.6104203 C75.6226953,42.8792535 71.5454478,59.8094609 70.9035752,61.4961641 C70.6474288,61.3690524 70.4440184,61.3157721 70.3031379,61.191705 L70.3031379,61.191705 Z M196.448444,37.5192516 C195.83294,40.072902 195.222709,42.6280747 194.610971,45.1824863 C193.987933,47.7848501 193.362634,50.387214 192.741102,52.990339 C192.131625,55.5401837 191.525161,58.0915506 190.900615,60.7159878 C197.259826,66.0272761 203.62205,71.2571217 209.963179,76.5128463 C210.109333,76.6331076 210.298429,76.6985663 210.527454,76.8218723 C210.623133,76.5752604 210.712784,76.4040022 210.756479,76.2213268 C212.617307,68.5147067 214.474369,60.8073255 216.324649,53.098422 C216.357798,52.9598931 216.307322,52.8008132 216.292254,52.6188989 C215.529089,52.2603984 214.722228,52.4445961 213.936461,52.4255674 C213.085905,52.4042553 212.233841,52.3943604 211.384038,52.4217617 C210.604298,52.4468796 209.78689,52.2177741 209.036532,52.7011029 C208.777372,53.7933498 208.522732,54.8741795 208.263572,55.9534868 C207.992359,57.08303 207.74902,58.2209457 207.432604,59.3375493 C207.138035,60.3803216 207.120708,61.521282 206.45096,62.5244746 C206.143585,62.3341877 205.880658,62.1987034 205.648619,62.0221171 C204.648895,61.2624918 203.657458,60.4914492 202.664514,59.7219289 C201.869707,59.1061605 201.087707,58.4728856 200.280093,57.8761458 C199.69397,57.4415305 199.400155,56.974947 199.70527,56.2031433 C199.924501,55.6459832 199.996825,55.0302147 200.137706,54.4403253 C200.912172,51.1985974 201.686638,47.9561084 202.463364,44.7151416 C202.568836,44.2767206 202.612532,43.8063313 203.17982,43.4272798 C204.08236,43.418146 205.129546,43.4006396 206.177486,43.4006396 C209.832092,43.4006396 213.487452,43.4112957 217.142811,43.4052065 C217.633256,43.4044454 218.148562,43.4980665 218.708317,43.119015 C218.975011,42.0389465 219.286153,40.8728682 219.547573,39.696134 C219.815774,38.4889538 220.285878,37.3114583 220.234648,36.0646985 C219.836868,35.9124689 219.521959,35.7937299 219.225884,35.6803189 C219.225884,35.4557803 219.203283,35.3035508 219.229651,35.1596939 C219.506891,33.6259814 219.509151,33.6259814 221.098766,33.1593978 C221.299163,32.3343138 221.5199,31.458994 221.718791,30.5791073 C221.760979,30.3933872 221.724818,30.190922 221.724818,29.984651 C221.260741,29.8522113 220.84714,29.7342334 220.413197,29.6109274 C220.672357,28.6769993 221.489012,29.1983854 222.028426,28.8132447 C222.10527,28.6252412 222.252178,28.3596007 222.321488,28.0756926 C222.933979,25.5738003 223.536676,23.0703856 224.124306,20.5631652 C224.175536,20.3469993 224.099445,20.1011486 224.079857,19.8431195 C223.793576,19.8119125 223.5977,19.7715716 223.402576,19.7715716 C216.14158,19.7677659 208.882091,19.7662436 201.621848,19.7715716 C201.335567,19.7715716 201.050039,19.8446418 200.74643,19.8857438 C200.655272,20.1924863 200.573908,20.4261586 200.515898,20.6666813 C199.931282,23.0711467 199.346665,25.4763734 198.773349,27.8838834 C198.667877,28.3268713 198.603841,28.7782319 198.261057,29.10857 C197.197296,29.2509046 197.091824,29.2813505 197.063196,29.5066502 C197.382625,29.5766758 197.707329,29.6467014 198.285165,29.7722908 C197.693014,32.443919 197.060182,34.9785408 196.448444,37.5192516 L196.448444,37.5192516 Z M211.765997,33.8231186 C211.624364,34.2721957 211.478209,34.7357346 211.313221,35.2586431 C211.728329,35.4679587 212.071113,35.6399781 212.502795,35.8569052 C212.440265,36.1666923 212.425198,36.5206259 212.287331,36.8159512 C212.198433,37.0069993 211.942286,37.1363944 211.735863,37.2444773 C211.613063,37.3084137 211.442801,37.2893851 211.293633,37.2893851 C209.297952,37.2901462 207.301517,37.2909073 205.305835,37.2817736 C205.114479,37.2810124 204.923876,37.2185983 204.648895,37.1698849 C204.636841,36.8502029 204.568284,36.5548776 204.624787,36.2877147 C204.898261,35.0082255 205.21091,33.7378701 205.500205,32.4621866 C205.633552,31.8730583 205.755598,31.2808854 205.86333,30.6871902 C205.897985,30.4961422 205.868604,30.2936769 205.868604,30.01053 C205.53486,29.9153865 205.207144,29.8468832 204.901275,29.722055 C204.802583,29.6824753 204.699371,29.4929496 204.710672,29.381822 C204.721219,29.2699333 204.854566,29.1017197 204.960038,29.0788852 C205.345011,28.9959201 205.739024,28.9624296 206.202348,28.9007767 C206.423085,28.242384 206.64307,27.5870358 206.873602,26.8997195 C208.165634,26.4803271 209.46746,26.7368339 210.745179,26.717044 C211.980708,26.6972542 213.230552,26.5663368 214.488683,26.8502449 C214.790031,27.6639117 214.339515,28.3177376 214.188841,29.0590954 C213.720997,29.1473885 213.301369,29.2265479 212.884754,29.3041849 C212.885508,29.6786696 213.151448,29.562214 213.314176,29.6078829 C213.497999,29.660402 213.686342,29.6976983 213.861124,29.7388003 C213.836263,31.0647195 213.629086,31.9636349 212.954818,33.6427266 C212.53971,33.7059019 212.197679,33.7576599 211.765997,33.8231186 L211.765997,33.8231186 Z M157.25353,76.3294097 C161.725544,57.6767251 166.190778,39.0225183 170.649985,20.3667891 C170.68238,20.2328271 170.613823,20.0752696 170.592729,19.9344572 C169.417469,19.7160079 163.822177,19.7045906 162.43748,19.9283681 C161.980937,21.2771217 161.754172,22.7255857 161.401594,24.1390369 C161.059563,25.5098639 160.73486,26.8852577 160.405637,28.2598904 C160.065866,29.6824753 159.726849,31.1058215 159.394612,32.531451 C159.062375,33.9570806 158.747466,35.387277 158.409202,36.8121455 C158.083745,38.1875393 157.731921,39.5568439 157.402697,40.9307155 C157.06142,42.3548227 156.729936,43.7812135 156.398453,45.2076042 C156.068476,46.6332337 155.753567,48.062669 155.414549,49.485254 C155.074025,50.9093613 154.702613,52.3250959 154.361336,53.7492032 C154.031359,55.1230747 153.732271,56.5045577 153.402294,57.8784293 C153.064783,59.2812244 152.87644,60.7289273 152.285797,62.1431396 C152.029651,62.026684 151.824733,61.9825375 151.686113,61.8622761 C149.604547,60.0530281 147.538049,58.2262738 145.512986,56.3272103 C145.591336,55.9207575 145.646332,55.5751965 145.72619,55.2357246 C146.737968,50.9626416 147.754266,46.6903198 148.769058,42.417998 C150.168069,36.5244317 151.56708,30.6308653 152.966092,24.7380601 C153.245592,23.5590424 153.538654,22.3830693 153.793294,21.1987235 C153.884452,20.7762865 154.081082,20.3218814 153.669741,19.8172405 C152.544203,19.7274251 151.347849,19.7692882 150.154508,19.7730939 C148.915965,19.7776608 147.672149,19.7045906 146.367309,19.835508 C145.470797,23.2188094 144.744546,26.567098 143.959533,29.9001636 C143.184314,33.1921272 142.407588,36.4840908 141.631615,39.7752933 C140.843588,43.1152092 140.03974,46.4520806 139.271301,49.7965634 C138.504369,53.1334348 137.623677,56.4451882 136.987078,59.7318238 C138.136724,60.9603162 156.002179,75.8864218 157.053886,76.5181743 C157.122443,76.4565214 157.235449,76.4047633 157.25353,76.3294097 L157.25353,76.3294097 Z M104.028574,69.0787171 C105.123977,64.459312 106.212599,59.8383845 107.309508,55.2197405 C108.394363,50.6513322 109.490519,46.0852074 110.576128,41.5167992 C111.651189,36.9978655 112.717963,32.4781707 113.789258,27.959237 C114.324905,25.7001508 114.878633,23.4448702 115.383392,21.1781725 C115.473797,20.7709585 115.741997,20.324926 115.440648,19.8887884 C114.049924,19.722097 93.1159856,19.7274251 91.8563482,19.897161 C91.7772441,20.0615689 91.6529378,20.232066 91.6069821,20.4223529 C88.460902,33.5285545 85.3200955,46.6362783 82.1860694,59.7455245 C82.1408671,59.933528 82.1807957,60.1428436 82.1807957,60.4579587 C84.0755255,62.0898593 86.0131975,63.7598173 87.956143,65.423686 C88.0955168,65.5431862 88.2800928,65.6109284 88.5362392,65.7540241 C88.7034877,65.191536 88.8677227,64.7257136 88.9822352,64.2469518 C89.3461137,62.7246564 89.6888979,61.1977942 90.045996,59.6732155 C91.4254196,53.7735599 92.8071032,47.8746656 94.1895402,41.9750101 C95.2035785,37.6486467 96.21611,33.3222834 97.2399422,28.9989647 C97.4004103,28.3230656 97.4689671,27.6060645 97.9006491,27.0511879 C99.5934753,26.8137098 104.792493,26.8616621 105.870568,27.124258 C106.032543,27.680657 105.825366,28.2081323 105.697293,28.7439803 C105.085555,31.2961084 104.469297,33.8482365 103.866599,36.4034092 C102.601688,41.7596053 101.349585,47.1180848 100.082413,52.4735197 C98.664568,58.4683187 97.2316551,64.4600731 95.8153163,70.4556332 C95.7256651,70.8354459 95.7226516,71.2358096 95.6797094,71.6217114 C96.0857767,71.9604221 96.4225339,72.2595532 96.7788787,72.5335663 C97.1683718,72.8342197 97.5751925,73.1112774 97.9594121,73.387574 C98.37678,73.2170769 98.7044967,73.0983379 99.0201594,72.9506753 C100.517109,72.2504194 102.009538,71.5417909 103.593125,70.7943439 C103.757361,70.1511742 103.901254,69.6168485 104.028574,69.0787171 L104.028574,69.0787171 Z M252.948307,7.95323191 C252.042,6.93557749 250.930024,6.08385325 249.856469,5.19711623 C248.802502,4.3263633 247.889416,3.25847314 246.537867,2.57420139 C245.911062,5.17884868 245.308364,7.66856268 244.720735,10.1620824 C244.677792,10.3439967 244.744842,10.5525512 244.763677,10.7877458 C246.783466,12.4287802 248.797982,14.0652476 250.92475,15.7930528 C251.504846,14.3575283 252.719282,9.59350512 252.948307,7.95323191 L252.948307,7.95323191 Z M233.962587,3.14810673 C233.421666,5.65076023 232.6359,8.09937226 232.244146,10.5662518 C233.420913,11.7802823 237.472546,15.036472 238.506172,15.6179889 C239.011684,14.6970002 240.382067,9.3217754 240.466445,7.92963633 C239.39967,6.78867599 235.299822,3.30566429 234.247362,2.65944993 C234.149423,2.82157438 234.000256,2.97228162 233.962587,3.14810673 L233.962587,3.14810673 Z M260.000619,10.7778509 C260.417233,11.1310234 260.873023,11.5184476 261.331073,11.9043494 C261.823778,12.319936 262.270528,12.7537902 262.660021,13.2964885 C262.97493,13.7356707 263.654471,13.8985563 264.155464,14.2106268 C264.408597,14.3681844 264.621801,14.5904395 264.857606,14.7761595 C265.247853,15.0813798 265.641113,15.3805108 266.136831,15.7626069 C266.30408,15.3485426 266.513517,15.0471281 266.528584,14.7365799 C266.549679,14.3072926 266.299559,13.8391868 266.398251,13.4479569 C266.497696,13.0491155 266.998688,12.7591182 267.116968,12.3595157 C267.544129,10.9201855 267.95547,9.4701992 268.195043,7.89005665 C266.713914,6.60904514 265.241826,5.32955592 263.762957,4.05920048 C263.231077,3.60251188 262.684129,3.16332968 262.134921,2.72795322 C262.072391,2.67695632 261.953358,2.69979075 261.85994,2.68837354 C261.313746,3.91458242 259.986305,9.6300402 260.000619,10.7778509 L260.000619,10.7778509 Z M89.4440521,15.1719563 C89.9909999,13.0224753 90.5236337,10.8684274 91.073595,8.7197076 C91.2144755,8.16787555 91.0894158,7.74619974 90.6509535,7.37628198 C88.8473817,5.85703125 87.0573706,4.32027412 85.2545522,2.79873995 C85.1581206,2.716536 84.9961457,2.71501371 84.7784213,2.65031615 C84.0597047,5.30748264 83.4246124,7.93496436 82.8731443,10.5342836 C83.8442404,11.5572661 87.9923048,14.9268668 89.1894124,15.6613743 C89.3069384,15.438358 89.4078902,15.3142909 89.4440521,15.1719563 L89.4440521,15.1719563 Z M71.4527831,6.1021208 C71.1371204,7.37323739 70.8417987,8.64892087 70.5216157,9.91851517 C70.3754616,10.4992708 70.6353748,10.8653829 71.0595231,11.2071382 C72.7779639,12.5886212 74.4798305,13.9906552 76.199778,15.3706159 C76.3662732,15.5038167 76.611119,15.5365461 76.8235698,15.6172277 C77.5392729,13.4532849 78.6211146,8.91836714 78.6708371,7.91212993 C77.3305889,6.53369152 73.4198365,3.24020559 72.3395016,2.62519828 C72.0230855,3.86434667 71.7315306,4.98095029 71.4527831,6.1021208 L71.4527831,6.1021208 Z M273.225305,6.56261513 C272.895328,7.922786 272.436525,9.26012244 272.335573,10.6568284 C272.578159,10.8828893 272.751434,11.0625201 272.944298,11.2193165 C274.658218,12.6145002 276.375152,14.0058781 278.092086,15.3964949 C278.169684,15.458909 278.260088,15.505339 278.348233,15.5525302 C278.391175,15.5761257 278.442404,15.5974379 278.489866,15.5974379 C278.535822,15.598199 278.582531,15.5707977 278.727932,15.5220842 C278.828884,15.2084914 278.968257,14.8400959 279.064689,14.4610444 C279.427814,13.0430263 279.748751,11.613591 280.140504,10.2047067 C280.377063,9.35754934 280.421511,8.52257036 280.303985,7.69900859 C278.647321,6.02828947 275.28427,3.20975969 274.249891,2.63585435 C273.743625,3.90849324 273.543981,5.25344115 273.225305,6.56261513 L273.225305,6.56261513 Z" id="Stroke-1" stroke="#FFFFFF" stroke-width="0.96" sketch:type="MSShapeGroup"></path>
                <path d="M25.3456832,74.6868531 C25.1626139,74.5361458 24.9531766,74.4037061 24.7904483,74.2271199 C22.8535297,72.1103682 20.9309252,69.9806771 18.9872263,67.8707758 C18.6082804,67.4605172 18.4734268,67.0464529 18.6128006,66.4969042 C18.9231897,65.2737399 19.197417,64.0406807 19.4889718,62.8121884 C20.4578078,58.7339592 21.4304107,54.6572524 22.3954798,50.5775009 C23.6980594,45.0736422 24.9908452,39.5675 26.2934248,34.0644024 C27.6879158,28.1693138 29.0884337,22.2765086 30.4851848,16.38142 C30.9854236,14.2692352 31.4818955,12.1562893 31.9746006,10.0425822 C32.0303501,9.80662646 32.0537046,9.56305921 32.1064407,9.23500457 C31.8163926,9.1588898 31.5873676,9.0470011 31.3583426,9.04623995 C27.9048868,9.03938962 24.4506777,9.0454788 20.9964686,9.05841831 C20.7546363,9.05841831 20.5135573,9.13377193 20.3146672,9.16726243 C19.9093532,9.61481725 19.8746981,10.1308754 19.7601857,10.6172487 C18.4598661,16.1218686 17.1610534,21.6257273 15.8607339,27.1303472 C14.7472505,31.8479404 13.6390408,36.5662948 12.516517,41.2808434 C10.9600511,47.8145349 9.38927118,54.3436595 7.83054519,60.8758288 C7.47947399,62.3494106 7.15853765,63.8290817 6.81198668,65.3034247 C6.71103488,65.732712 6.569401,66.1513432 6.45564188,66.541812 C6.32003498,66.5555126 6.26955908,66.5692133 6.22209666,66.5623629 C6.17388087,66.5555126 6.12039148,66.5364839 6.08422964,66.506038 C5.97047052,66.40785 5.85294454,66.3119454 5.75575959,66.1977732 C3.766105,63.861811 1.77795715,61.5243266 -0.138620388,59.2713295 C-0.191356405,59.1084439 -0.211697441,59.0612527 -0.220737901,59.0117781 C-0.229778361,58.9630647 -0.236558706,58.9090232 -0.226011502,58.8610709 C-0.0753371675,58.1714711 0.0632832207,57.4780656 0.233545219,56.7930327 C4.87431473,38.1266475 9.51809774,19.4610234 14.1648942,0.796160453 C14.2003027,0.654586988 14.2869404,0.525953034 14.3494703,0.39046875 C14.873817,0.0890542763 15.4365856,0.213882493 15.974493,0.213882493 C21.9818787,0.203226425 27.9892645,0.207032164 33.9966502,0.207032164 C43.3083241,0.207032164 52.619998,0.207032164 61.9316719,0.209315607 C62.5260821,0.209315607 63.1204924,0.231388889 63.6275115,0.241283808 C64.0215249,0.640125183 63.8587966,0.985686221 63.7781859,1.31830775 C63.2161706,3.62458516 62.6503885,5.92934028 62.0815928,8.23409539 C60.7014159,13.8216804 59.3174722,19.4092654 57.9380486,24.9976115 C56.7884035,29.6527906 55.6417718,34.3102531 54.4958935,38.9661933 C52.9025124,45.4374708 51.3121448,51.9087482 49.7180103,58.3792644 C48.7280799,62.3996464 47.735136,66.4192672 46.7384253,70.4381268 C46.666855,70.7273629 46.5515891,71.0044207 46.4513907,71.3027906 C45.9925874,71.423813 45.566179,71.537224 45.1563448,71.6460682 C44.8813641,72.1788715 44.6199442,72.6667672 44.7886994,73.3106981 C45.1277167,73.4530327 45.4825547,73.6022177 45.9142367,73.7841319 C45.1646319,76.805127 44.4255743,79.7827367 43.7015841,82.6971711 C43.2992836,82.8905026 43.1365553,82.6583525 42.9836209,82.4810051 C41.1145058,80.3041228 39.2627182,78.1112564 37.379289,75.9457913 C37.0048633,75.516504 36.9129519,75.0773218 37.0093835,74.5521299 C37.0734201,74.2065689 37.1276629,73.8594856 37.2007399,73.4347652 C36.842135,73.2779688 36.4970908,73.1272615 36.1618404,72.98036 C36.1867016,71.9756451 36.1867016,71.974884 36.9347997,71.8272213 C37.1269095,71.7899251 37.320526,71.7617626 37.6015336,71.7153326 C37.7748091,71.1421884 37.9774661,70.5797003 38.1145798,70.0019892 C39.5964618,63.7613395 41.0685501,57.5191676 42.5428985,51.2769956 C43.7384993,46.2153637 44.9265664,41.1514483 46.129701,36.0913386 C47.5437796,30.1482977 48.9759392,24.2090625 50.3915246,18.2667827 C51.0123028,15.6644189 51.6172603,13.0574881 52.2154374,10.4490351 C52.3013218,10.0715058 52.3043353,9.67418677 52.3540578,9.21521473 C52.0293546,9.14671144 51.7973161,9.05917946 51.5622642,9.05613487 C48.2142804,9.00437683 44.8662967,8.99219846 41.4716039,9.06526864 C41.3299701,9.39027869 41.171762,9.64526316 41.1039586,9.9238432 C39.1399186,18.0711678 37.1803989,26.2207758 35.2291662,34.3711449 C33.7947466,40.3621382 32.3716275,46.356176 30.9439882,52.3486915 C29.2820502,59.3230875 27.6253859,66.2990058 25.9483806,73.2703573 C25.8361282,73.7407465 25.8436619,74.289534 25.3456832,74.6868531" id="Fill-2" fill="#FFFFFF" sketch:type="MSShapeGroup"></path>
                <path d="M181.009599,74.5338624 C174.308358,68.7537071 167.849702,63.1821062 161.336804,57.5640753 C162.482683,52.4933096 163.709172,47.5001809 164.888198,42.4963962 C166.055924,37.5436084 167.260566,32.5991932 168.420005,27.5390835 C167.931066,27.407405 167.568695,27.3092169 167.114412,27.1866721 C167.474523,26.7406396 167.987569,27.0329203 168.455413,26.7710855 C168.537531,26.6089611 168.724367,26.3623492 168.793677,26.0845303 C169.137215,24.7137034 169.449864,23.335265 169.772307,21.95911 C170.081943,20.6324296 170.385551,19.304227 170.700461,17.9783077 C170.757717,17.7377851 170.853395,17.5063962 170.931746,17.2704404 C171.512595,16.9142233 172.125087,17.0253509 172.71121,17.0230674 C176.714627,17.0139337 180.718797,17.0230674 184.722214,17.015456 C185.312858,17.0146948 185.903501,16.9568476 186.53106,16.9233571 C186.6742,16.5199488 186.821861,16.2040726 186.899459,15.8706899 C188.060404,10.959004 189.205529,6.04275128 190.375515,1.13334887 C190.47496,0.714717654 190.410171,0.200942982 190.856167,-0.0882931287 C191.812949,0.452882858 196.648841,4.63234466 197.596583,5.75427632 C195.953479,12.6632136 194.260653,19.6170587 192.640151,26.30983 C192.024646,26.9735508 191.096492,26.3524543 190.838086,27.3541246 C191.314217,27.4698191 191.730831,27.5718129 192.165527,27.6776124 C192.165527,27.9409695 192.205455,28.1495239 192.160253,28.3367663 C188.469485,43.6434457 184.773444,58.9478417 181.009599,74.5338624 M175.986116,27.6129148 C175.925093,28.072648 175.906259,28.3717791 175.842222,28.6610152 C175.688535,29.3498538 175.509986,30.0326033 175.348011,30.7191584 C174.455265,34.4974954 173.56026,38.2750713 172.675048,42.0541694 C171.846339,45.5897003 171.057559,49.1343649 170.185908,52.6592398 C169.963663,53.5589163 170.081189,54.1724013 170.81422,54.7653353 C172.413628,56.0585252 173.955026,57.4240241 175.530327,58.7476599 C175.745791,58.928813 176.017758,59.0414629 176.273904,59.191409 C176.790717,58.7301535 176.781677,58.1334137 176.908243,57.6150722 C177.492106,55.2159348 178.02926,52.8038578 178.604083,50.4016758 C180.330811,43.1936075 182.069593,35.9878226 183.795567,28.7789931 C183.898779,28.3504669 184.075068,27.9067178 183.829469,27.4888478 C183.59065,27.2414748 183.12808,27.4599242 182.949531,27.010847 C183.403061,26.9286431 183.784267,26.8593787 184.154926,26.7916365 C184.505997,25.9003326 184.796798,25.0699205 184.681532,24.1710051 C183.235812,23.8992754 178.125692,23.9198264 176.948172,24.1984064 C176.720654,24.9778216 176.484095,25.7884439 176.237743,26.6333178 C175.823388,26.6721363 175.479851,26.6964931 175.13782,26.7391173 C174.87414,26.7718467 174.61724,26.8883023 174.666209,27.191239 C174.685044,27.3160673 174.931396,27.4454624 175.097138,27.4964592 C175.326916,27.5664848 175.577789,27.5642014 175.986116,27.6129148" id="Fill-3" fill="#FFFFFF" sketch:type="MSShapeGroup"></path>
                <path d="M123.843003,53.5886011 C123.258386,53.1684476 122.742327,53.2704413 122.254142,53.2666356 C120.451323,53.2529349 118.648505,53.2613076 116.84644,53.2597853 C116.495369,53.2597853 116.144298,53.2407566 115.794733,53.2559795 C115.239498,53.2818586 114.852265,53.0413359 114.54715,52.5793193 C113.992668,51.7382511 113.409558,50.9154505 112.836996,50.0857995 C111.920143,48.7591192 111.035684,47.4080821 110.073629,46.1164145 C109.598251,45.4793339 109.547022,44.8688935 109.731598,44.1359083 C110.432234,41.3447798 111.105748,38.546801 111.779262,35.7495833 C113.127044,30.1528646 114.467292,24.5538624 115.814321,18.9571436 C115.919793,18.521006 116.058413,18.0940022 116.202307,17.5901224 C116.560912,17.5513039 116.896163,17.4843229 117.232166,17.4835618 C124.492409,17.4767114 131.752652,17.4759503 139.013648,17.4789949 C139.357939,17.479756 139.70223,17.5246637 140.140692,17.5551096 C140.094736,17.8999095 140.081176,18.1838176 140.017139,18.4578308 C138.713053,24.0119253 137.408966,29.5667809 136.094333,35.1185919 C134.513006,41.8014684 132.920378,48.4805391 131.336791,55.1626544 C130.603007,58.2574808 129.847375,61.3469792 129.168587,64.4547451 C128.998325,65.232638 128.675129,65.6763871 127.946618,65.9968302 C124.551925,67.4894408 121.183601,69.0429432 117.802469,70.5682831 C110.356896,73.92875 102.910571,77.2869335 95.4627384,80.6420724 C94.8758618,80.9061906 94.2784381,81.1459521 93.568762,81.4466054 C93.5514344,81.0797323 93.4941782,80.8392096 93.5371204,80.6184768 C93.9318871,78.5854514 94.3620624,76.5600375 94.7425151,74.5239675 C94.8796287,73.7925046 95.3022702,73.4256314 95.9433895,73.1280227 C102.125557,70.258496 108.296425,67.3630903 114.470306,64.4752961 C116.64981,63.4553582 118.81726,62.4095413 121.012585,61.4268997 C121.819446,61.0645934 122.248868,60.5485353 122.434951,59.6572314 C122.786022,57.9789008 123.271947,56.3279715 123.687055,54.6618193 C123.770679,54.3269143 123.78876,53.9760252 123.843003,53.5886011 M130.441032,25.6095742 C130.243648,25.505297 130.117082,25.3812299 129.989009,25.3797076 C127.538291,25.350784 125.087573,25.3309942 122.636855,25.3264273 C122.349067,25.3256661 122.060525,25.4284211 121.744109,25.4877906 C121.613776,25.8447688 121.461595,26.1644508 121.380231,26.5008781 C120.438516,30.3735974 119.505842,34.2486001 118.574675,38.1236029 C118.232644,39.546949 117.910201,40.9741009 117.557623,42.3951636 C117.465711,42.7627979 117.483792,43.0908525 117.668368,43.4143403 C118.166347,44.2850932 118.605563,45.196187 119.270037,45.9215607 C120.999025,46.1339209 124.505216,46.0874909 125.55391,45.8446848 C125.955457,44.8962948 129.821007,29.3605099 130.401857,26.3265753 C130.447059,26.0906195 130.429731,25.8424854 130.441032,25.6095742" id="Fill-4" fill="#FFFFFF" sketch:type="MSShapeGroup"></path>
                <path d="M242.00709,58.0260919 C243.164269,52.8335426 244.436713,47.7955062 245.625534,42.7384412 C246.812094,37.696599 248.125975,32.6852029 249.189735,27.520816 C248.816816,27.3990323 248.472525,27.2871436 247.847227,27.0831561 C248.505674,26.959089 248.872566,26.8905857 249.317055,26.8060983 C249.401433,26.6158114 249.538546,26.4004066 249.596556,26.165212 C250.043305,24.3529194 250.472727,22.5352988 250.912696,20.7207228 C251.160556,19.696218 251.417455,18.6732356 251.687916,17.5787052 C252.079669,17.5406478 252.414166,17.4805172 252.749416,17.4805172 C260.15732,17.4751891 267.56447,17.4767114 274.972374,17.4805172 C275.266942,17.4805172 275.561511,17.5178134 275.935937,17.5429313 C275.954771,17.8291228 276.029355,18.0780181 275.976619,18.2957063 C275.34002,20.9460225 274.684586,23.5902495 274.029906,26.2352376 C274.006552,26.3296199 273.936488,26.412585 273.891286,26.4947889 C273.467891,26.9948629 272.517136,26.3364702 272.248936,27.3244399 C272.683631,27.4462235 273.097232,27.5634402 273.528914,27.6837016 C273.548502,27.8412591 273.609525,27.9957721 273.577883,28.1282118 C270.845404,39.5659777 268.106145,51.0022213 265.369145,62.4300923 C264.94349,62.6097231 264.584885,62.7611915 264.167518,62.9377778 C264.029651,63.4728646 263.885757,64.0041457 263.757683,64.5399936 C263.640911,65.0286504 263.855622,65.3064693 264.327986,65.4221637 C264.398803,65.4396701 264.446265,65.5538423 264.504275,65.6238679 C264.043965,66.3484804 264.052252,66.3484804 264.053758,67.5297816 C264.053758,67.8304349 264.004036,68.1364163 263.933972,68.4294582 C263.506057,70.1960819 263.068348,71.959661 262.626872,73.722479 C262.57941,73.9089602 262.482225,74.083263 262.366206,74.3641265 C261.958632,74.0748904 261.58722,73.8389346 261.245189,73.5656826 C258.9685,71.7465397 256.703111,69.9136961 254.424162,68.0975978 C253.838792,67.6317754 253.288831,67.119523 252.557307,66.8485545 C252.262738,66.7397103 252.018646,66.4207895 251.812222,66.1505821 C251.301436,65.4861001 250.734901,64.9822204 249.829348,64.9746089 C249.561148,64.9723255 249.267333,64.7904112 249.032281,64.6221976 C248.584024,64.3009932 248.171177,63.9303143 247.742508,63.5824698 C247.492389,63.3800046 247.401231,63.176017 247.472048,62.8106661 C247.509716,62.6165735 247.215902,62.2991749 247.003451,62.1218275 C245.80333,61.1285298 244.580607,60.1641557 243.370692,59.1837975 C242.944284,58.8382365 242.533697,58.4744079 242.00709,58.0260919 M256.690304,28.4775786 C257.126506,29.3369143 257.139313,29.3399589 256.982612,29.9922624 C255.887963,34.5553427 254.78578,39.1169006 253.690378,43.6799808 C252.889544,47.0153299 252.119598,50.3590515 251.282602,53.6867891 C251.094259,54.4372807 251.211785,54.9152814 251.848384,55.3590305 C253.743114,56.6773383 255.606202,58.0397926 257.487371,59.377129 C257.638045,59.4844508 257.832415,59.5285974 258.092328,59.6382027 C258.218895,59.3649507 258.354502,59.1594408 258.412511,58.9326188 C258.58654,58.248347 258.723654,57.5541804 258.888642,56.8676252 C259.538049,54.1701179 260.193482,51.4733717 260.845902,48.7766255 C261.627902,45.5394645 262.413668,42.3038258 263.188134,39.0651425 C264.045471,35.4816594 264.895275,31.8966539 265.736791,28.3101261 C265.800827,28.0376352 265.775213,27.7438322 265.789527,27.4880866 C265.378186,27.3617361 265.058003,27.2650704 264.74008,27.160032 C264.730286,27.1569874 264.748367,27.0664108 264.753641,27.0047579 C265.182309,26.9324488 265.615498,26.8601398 266.095396,26.7802193 C266.24607,26.0799635 266.63255,25.4626727 266.386951,24.7608946 C265.012047,24.5295057 259.628453,24.5317891 258.361282,24.7593723 C258.11945,25.3774242 257.867824,26.0198328 257.633525,26.6196171 C257.133286,26.6934485 256.733246,26.7200886 256.355053,26.8266493 C256.23376,26.8601398 256.169724,27.1037071 256.102674,27.2133123 C256.446965,27.7278481 257.072263,27.3061723 257.326149,27.752966 C257.439155,28.3207822 256.801803,28.1495239 256.690304,28.4775786" id="Fill-5" fill="#FFFFFF" sketch:type="MSShapeGroup"></path>
                <path d="M237.736226,62.4293311 C237.255575,62.6340799 236.893956,62.7878317 236.528571,62.943867 C236.402005,63.4134951 236.270918,63.8473492 236.169966,64.2880537 C236.001211,65.0309338 236.010251,65.0324561 236.838207,65.5477531 C236.728214,66.9307584 235.195856,73.1714081 234.656442,74.3549927 C234.2112,74.02161 233.76671,73.7095395 233.344822,73.3700676 C230.251478,70.8833982 227.161148,68.3921619 224.07383,65.8971199 C223.486201,65.4221637 222.934732,64.9061056 222.09171,64.9708032 C221.918434,64.9837427 221.70975,64.8573922 221.556062,64.7424589 C221.076165,64.3793914 220.609827,63.9965342 220.145751,63.6113935 C220.032745,63.5170111 219.851936,63.3663039 219.869263,63.2726827 C220.063633,62.2040314 219.131712,61.9574196 218.571957,61.4817023 C217.233216,60.34607 215.848518,59.2682849 214.542172,58.2148565 C214.346295,57.5427632 214.557239,57.0076764 214.683806,56.4794399 C215.977345,51.0775749 217.288212,45.6802769 218.590791,40.2814565 C218.968984,38.7104477 219.301221,37.1280217 219.718589,35.5684302 C219.912959,34.8430565 219.915219,34.1892306 219.497098,33.4844079 C219.234171,33.3740415 218.919261,33.2431241 218.623186,33.119057 C218.580244,32.9987957 218.506414,32.8990853 218.521481,32.8168814 C218.596818,32.4233681 218.697017,32.0344216 218.803996,31.5769719 C219.402926,31.505424 219.981515,31.4353984 220.615854,31.3600448 C221.107053,30.1338359 221.370733,28.8726142 221.540995,27.5033096 C221.170336,27.3929432 220.852413,27.2985609 220.438812,27.1760161 C220.789883,26.7383562 221.331558,27.0603216 221.785841,26.6561522 C222.68386,23.783581 223.181838,20.63928 224.033902,17.7187564 C224.19663,17.6000174 224.232792,17.5642434 224.276487,17.5452147 C224.320936,17.5246637 224.372919,17.5102019 224.421888,17.5102019 C231.829792,17.4972624 239.236942,17.4843229 246.644846,17.4736668 C247.044886,17.4736668 247.446433,17.4805172 247.84572,17.4919344 C247.942905,17.494979 248.04009,17.5284695 248.135015,17.5558708 C248.182477,17.5695715 248.223913,17.6007785 248.344452,17.6639538 C248.344452,17.8679413 248.395682,18.1252092 248.336165,18.3527924 C247.624229,21.0830291 247.095362,23.8619792 246.318636,26.4529258 C245.773195,26.9347323 244.88497,26.397362 244.579101,27.3533635 C245.093654,27.4766694 245.510268,27.5763798 245.894488,27.6677175 C245.928389,27.8465872 245.982632,27.9531478 245.961538,28.041441 C243.229812,39.479968 240.491306,50.9169728 237.736226,62.4293311 M238.910732,24.8202641 C237.605892,24.5439675 232.299142,24.5081935 230.734389,24.7304486 C230.500844,25.3439337 230.255245,25.9863423 230.027727,26.5838432 C228.746995,26.7771747 228.746995,26.7771747 228.45318,27.3442297 C228.885615,27.4599242 229.299216,27.5695294 229.736172,27.685985 C229.776101,28.8787034 229.30675,29.8857018 229.052864,30.9551142 C228.389897,31.0677641 227.810554,31.1674744 227.223677,31.2664236 C226.984105,31.9841859 226.682757,32.6197442 226.768641,33.418188 C227.105398,33.5224653 227.426334,33.6214145 227.795486,33.7355866 C227.924313,34.0225393 228.065947,34.3391767 228.209841,34.660381 C227.360038,38.2042845 226.514755,41.7367708 225.664951,45.2677348 C224.981643,48.1136659 224.310389,50.9626416 223.593933,53.8002001 C223.418397,54.4966502 223.579619,54.9282209 224.162728,55.3339126 C226.016023,56.6232968 227.836169,57.9613944 229.678916,59.2667626 C229.901914,59.4243202 230.184428,59.4966292 230.452628,59.6138459 C230.880544,59.0140616 230.900885,58.3883982 231.039505,57.8144929 C232.559809,51.5380693 234.062032,45.2570788 235.565762,38.9768494 C236.423852,35.3941274 237.277422,31.8106442 238.124966,28.2256387 C238.179962,27.9965333 238.167154,27.7514437 238.178455,27.6007365 C237.82889,27.21179 237.339199,27.4431789 236.921078,27.0283534 C237.516241,26.938538 237.941143,26.8746016 238.461723,26.7969645 C238.605617,26.1629285 238.747251,25.5395486 238.910732,24.8202641" id="Fill-6" fill="#FFFFFF" sketch:type="MSShapeGroup"></path>
                <path d="M53.268651,57.3509539 C53.2573504,57.1005364 53.2151616,56.9414565 53.2490633,56.8021665 C55.0609222,49.2424479 56.8780547,41.6827293 58.7019675,34.1260554 C58.7607305,33.8847716 58.8910638,33.6609942 58.9852353,33.4364556 C59.5291696,33.1677705 60.0881714,33.2811815 60.6283389,33.2796592 C64.6325093,33.2690031 68.6374332,33.2766146 72.6416036,33.2712865 C73.1832778,33.2705254 73.7249521,33.2332292 74.3080617,33.211917 C74.4745569,32.7072761 74.6387919,32.2909284 74.7487842,31.8608799 C75.1608785,30.2464857 75.5661924,28.6305693 75.9489053,27.0093247 C76.061911,26.5305629 76.264568,26.0426672 76.055884,25.525848 C75.5533851,25.1764812 74.9860963,25.3127266 74.450449,25.3112043 C70.5457236,25.299026 66.6409982,25.3104432 62.7370262,25.3013094 C62.1968587,25.299026 61.6340901,25.4154815 61.0683079,25.0904715 C61.0683079,24.8644106 61.0366663,24.6139931 61.0735815,24.3734704 C61.2875391,22.9813313 62.3949955,18.6016877 62.7957892,17.5558708 C64.6468234,17.392224 66.5415532,17.5041128 68.4317627,17.4843229 C70.3837487,17.4645331 72.3364881,17.4805172 74.2884741,17.4805172 C76.1907376,17.4805172 78.093001,17.4736668 79.9952645,17.4812783 C81.8899943,17.4888898 83.7862308,17.4439821 85.787186,17.5162911 C85.7449971,17.9554733 85.7510241,18.2964675 85.6749336,18.6184329 C84.642061,22.9912262 83.5948744,27.3602138 82.5552215,31.732246 C81.013823,38.2149406 79.4822184,44.701441 77.9340396,51.1833745 C76.3165506,57.9591109 74.6847476,64.732564 73.0604783,71.5067781 C72.8736421,72.2861933 72.6920795,73.0671308 72.5203108,73.7985938 C71.9997309,74.0094317 71.7835133,73.6638706 71.5394208,73.4499881 C69.2303367,71.4329468 66.9302929,69.4060106 64.6272357,67.3813578 C61.1165237,64.2941429 57.6065651,61.206928 54.0973598,58.1181908 C53.8336797,57.8860408 53.5820536,57.6409512 53.268651,57.3509539 M68.0761713,59.2104377 C68.7180439,57.5237345 72.7945381,40.5942882 72.8766556,39.3246939 C72.5964013,39.273697 72.3101201,39.1762701 72.0230855,39.1747478 C70.1223287,39.1625694 68.221572,39.1580026 66.3208153,39.1777924 C65.3338984,39.1876873 65.3180776,39.2128052 65.0581643,40.2829788 C64.1767195,43.9098474 63.3013016,47.5389995 62.4296506,51.1681515 C62.2202132,52.0427102 62.0356372,52.923358 61.8254465,53.86642 C63.7314768,55.5698684 65.5990852,57.242871 67.475734,58.9059786 C67.6166145,59.0300457 67.8192715,59.083326 68.0761713,59.2104377" id="Fill-7" fill="#FFFFFF" sketch:type="MSShapeGroup"></path>
                <path d="M195.457761,27.4865643 C194.879171,27.360975 194.554468,27.2909494 194.235039,27.2209238 C194.26442,26.9956241 194.369139,26.9651782 195.432899,26.8236047 C195.775684,26.4925055 195.83972,26.0411449 195.945192,25.598157 C196.518508,23.1906469 197.103878,20.7861815 197.687741,18.3809549 C197.746504,18.1411933 197.827115,17.907521 197.918273,17.6000174 C198.222635,17.5589154 198.508163,17.4866064 198.793691,17.4866064 C206.053933,17.4805172 213.314176,17.4820395 220.574419,17.4866064 C220.770296,17.4866064 220.965419,17.526186 221.2517,17.5573931 C221.271288,17.8154221 221.347378,18.062034 221.296902,18.2774388 C220.709273,20.7846592 220.105822,23.288835 219.494084,25.7907273 C219.424774,26.0746354 219.277113,26.3395148 219.201022,26.5282794 C218.661608,26.9134201 217.8442,26.3912728 217.585794,27.325201 C218.019736,27.4485069 218.433337,27.5664848 218.897414,27.6989245 C218.897414,27.9051955 218.932822,28.108422 218.891387,28.2933808 C218.691743,29.1732675 218.471759,30.0485874 218.271362,30.8736714 C216.680994,31.3402549 216.679487,31.3402549 216.401493,32.8739675 C216.375879,33.0178244 216.39848,33.1700539 216.39848,33.3945925 C216.694555,33.5072423 217.008711,33.6275037 217.407244,33.778972 C217.45772,35.0264931 216.987616,36.2032273 216.719416,37.4104075 C216.457996,38.5871418 216.147607,39.7524589 215.88016,40.8332886 C215.321158,41.2123401 214.805099,41.1187189 214.314654,41.1194801 C210.660048,41.1255693 207.004688,41.1149132 203.350082,41.1149132 C202.302142,41.1149132 201.254202,41.1331807 200.351663,41.1415534 C199.785128,41.5206049 199.740679,41.9909942 199.63596,42.4294152 C198.859234,45.6711431 198.084014,48.912871 197.310302,52.1545989 C197.168668,52.7444883 197.097098,53.3610179 196.877113,53.918178 C196.572751,54.6892206 196.865812,55.1558041 197.452689,55.5896583 C198.260303,56.1871592 199.042303,56.820434 199.836357,57.4369636 C200.829301,58.2057228 201.820738,58.9767654 202.821215,59.7371519 C203.052501,59.912977 203.315427,60.0484613 203.622803,60.2387482 C204.293304,59.2355556 204.309878,58.0945952 204.6052,57.0518229 C204.920862,55.9352193 205.164201,54.7973035 205.435415,53.6677604 C205.694575,52.588453 205.949215,51.5076234 206.208375,50.4153765 C206.958733,49.9320477 207.776141,50.1611531 208.555881,50.1360353 C209.406437,50.108634 210.258501,50.1185289 211.109057,50.139841 C211.894071,50.1588697 212.701685,49.974672 213.464851,50.3331725 C213.479165,50.515848 213.52964,50.6749278 213.497245,50.8134567 C211.646211,58.521599 209.78915,66.2289803 207.929075,73.9363615 C207.88538,74.1182758 207.794975,74.2902951 207.70005,74.5361458 C207.470272,74.4136011 207.281176,74.3473812 207.135775,74.2271199 C200.794646,68.9713953 194.431669,63.7415497 188.072458,58.4302613 C188.697757,55.8058242 189.303468,53.2544572 189.912945,50.7046126 C190.53523,48.1014876 191.159775,45.4991237 191.782814,42.8967599 C192.395305,40.3423483 193.005536,37.7871756 193.620287,35.2335252 C194.232778,32.6928143 194.865611,30.1581926 195.457761,27.4865643 M210.127414,31.3570002 C210.800928,29.6779084 211.008859,28.7789931 211.03372,27.4530738 C210.858185,27.4119719 210.670595,27.3754368 210.486019,27.3229176 C210.324044,27.2764876 210.058104,27.3929432 210.05735,27.0184585 C210.473212,26.9408215 210.893593,26.8616621 211.361437,26.773369 C211.512111,26.0320111 211.962627,25.3781853 211.660525,24.5645185 C210.402395,24.2806104 209.153304,24.4122889 207.917021,24.4313176 C206.639303,24.4511075 205.33823,24.1946007 204.045444,24.6139931 C203.814913,25.3013094 203.595682,25.9574187 203.374944,26.6150503 C202.91162,26.6767032 202.516853,26.7094326 202.13188,26.7931588 C202.026408,26.8159932 201.893815,26.9842069 201.882514,27.0960956 C201.871967,27.2072231 201.975179,27.3967489 202.073871,27.4370897 C202.37974,27.5611568 202.706703,27.6304212 203.040447,27.7248035 C203.040447,28.0079505 203.069828,28.2104158 203.035173,28.4014638 C202.928194,28.9959201 202.806148,29.588093 202.672048,30.1764602 C202.382753,31.4521436 202.070857,32.7224991 201.797383,34.0019883 C201.740127,34.2691511 201.808684,34.5644764 201.821491,34.8841584 C202.095719,34.9328719 202.286322,34.995286 202.477678,34.9960471 C204.47336,35.0051809 206.469795,35.0051809 208.466229,35.0044198 C208.614644,35.0044198 208.785659,35.0226873 208.907705,34.9587509 C209.114129,34.8506679 209.371029,34.7212728 209.459927,34.5302248 C209.597794,34.2348995 209.612108,33.8809658 209.675391,33.5711787 C209.243709,33.3542516 208.900925,33.1822323 208.485817,32.9736778 C208.650052,32.4500082 208.796206,31.9864693 208.93784,31.5373922 C209.370275,31.4719335 209.712306,31.4201754 210.127414,31.3570002" id="Fill-8" fill="#FFFFFF" sketch:type="MSShapeGroup"></path>
                <path d="M154.226482,74.2332091 C153.174776,73.6006954 135.308566,58.6738286 134.159674,57.4453363 C134.79552,54.1594618 135.676965,50.8477083 136.443144,47.510837 C137.211583,44.1663542 138.016184,40.8294828 138.803457,37.4895669 C139.580184,34.1976033 140.35691,30.9064008 141.131376,27.6144371 C141.917143,24.2813715 142.642639,20.933083 143.539152,17.5497816 C144.844745,17.4181031 146.088562,17.4919344 147.326351,17.4873675 C148.519692,17.4835618 149.716046,17.4416986 150.842337,17.5322752 C151.252924,18.036155 151.056294,18.4905601 150.96589,18.9137582 C150.71125,20.0973428 150.418189,21.273316 150.138688,22.4523337 C148.739676,28.3451389 147.340665,34.2387052 145.941654,40.1322716 C144.926862,44.4045934 143.910564,48.6769152 142.898786,52.9499982 C142.818175,53.2887089 142.764686,53.6350311 142.684828,54.0414839 C144.710645,55.9413085 146.777143,57.7673017 148.857956,59.5765497 C148.99733,59.6975722 149.201493,59.7409576 149.458393,59.8581743 C150.048283,58.4432008 150.236626,56.9962591 150.574136,55.5927029 C150.904867,54.2188313 151.203955,52.8373483 151.533179,51.4634768 C151.875209,50.0401307 152.246622,48.6236349 152.587146,47.1995276 C152.926163,45.7761815 153.240319,44.3475073 153.571049,42.9218777 C153.901779,41.495487 154.233263,40.0690963 154.575293,38.6457502 C154.904517,37.2711175 155.256341,35.9018129 155.581798,34.526419 C155.919309,33.1023118 156.234218,31.6721153 156.566455,30.2457246 C156.898692,28.8208562 157.238462,27.3975101 157.578233,25.9734028 C157.906703,24.5995313 158.23216,23.2241374 158.573437,21.8533105 C158.926015,20.4390981 159.15278,18.9913953 159.610076,17.6426416 C160.994773,17.4188642 166.589312,17.4302814 167.764571,17.6487308 C167.785666,17.7895431 167.854223,17.9478618 167.822581,18.0818238 C163.363374,36.737553 158.89814,55.3909987 154.425372,74.0436833 C154.407292,74.1190369 154.295039,74.170795 154.226482,74.2332091" id="Fill-9" fill="#FFFFFF" sketch:type="MSShapeGroup"></path>
                <path d="M100.765722,68.5086175 C99.1821343,69.2560645 97.6889517,69.964693 96.1927555,70.6649488 C95.8770928,70.8126115 95.5486227,70.9313505 95.1320082,71.1026087 C94.7477887,70.825551 94.3402146,70.5484932 93.9507214,70.2478399 C93.59513,69.9745879 93.2583729,69.6746957 92.8523055,69.335985 C92.8944943,68.9500832 92.8982612,68.5489583 92.9879124,68.1699068 C94.4042512,62.1743467 95.8364107,56.1825923 97.2550096,50.1877933 C98.5221807,44.8323584 99.7742845,39.4738788 101.038442,34.1176827 C101.641893,31.5625101 102.257398,29.0111431 102.869889,26.4582538 C102.997962,25.9224059 103.204386,25.3956917 103.042411,24.8385316 C101.964336,24.5759357 96.765318,24.5279834 95.0724918,24.7654614 C94.6415632,25.3203381 94.5722531,26.0381003 94.4125383,26.7132383 C93.3879528,31.036557 92.3761746,35.3636815 91.3621363,39.6892836 C89.9796993,45.5889391 88.5980157,51.4885947 87.2178388,57.387489 C86.861494,58.9120678 86.5187099,60.43893 86.154078,61.9619865 C86.0403188,62.4399872 85.8760838,62.9058096 85.7080819,63.4675365 C85.4526889,63.3252019 85.2681129,63.2574598 85.1279857,63.1387208 C83.1850402,61.4740908 81.2481216,59.8041329 79.3526385,58.1722323 C79.3526385,57.8578783 79.3134632,57.6478015 79.3586655,57.4597981 C82.4926916,44.3505519 85.6334981,31.242828 88.7795782,18.1366265 C88.8255339,17.9471007 88.9490869,17.7758425 89.0289443,17.6114346 C90.2885817,17.4416986 111.22252,17.4363706 112.613245,17.6038231 C112.914593,18.0391996 112.646393,18.4852321 112.555235,18.8932072 C112.051229,21.1591438 111.496748,23.4144243 110.961854,25.6735106 C109.890559,30.1924443 108.823032,34.7121391 107.748724,39.2310727 C106.662362,43.799481 105.566959,48.3656058 104.482104,52.9340141 C103.384442,57.5534192 102.295819,62.1735855 101.20117,66.7929907 C101.073851,67.3311221 100.929203,67.8662089 100.765722,68.5086175" id="Fill-10" fill="#FFFFFF" sketch:type="MSShapeGroup"></path>
                <path d="M248.096593,13.5073264 C245.969825,11.7795212 243.955309,10.1430537 241.935519,8.50278052 C241.916685,8.26682474 241.850388,8.05827029 241.892577,7.87635599 C242.480961,5.38283626 243.083658,2.89312226 243.70971,0.288474963 C245.061259,0.972746711 245.974345,2.04063688 247.029065,2.9113898 C248.10262,3.79812683 249.213843,4.64985106 250.120903,5.66750548 C249.891878,7.30777869 248.677443,12.0718019 248.096593,13.5073264" id="Fill-11" fill="#FFFFFF" sketch:type="MSShapeGroup"></path>
                <path d="M231.419204,0.373723501 C232.472418,1.01993787 236.572267,4.50218841 237.639041,5.6439099 C237.554663,7.03604898 236.183527,12.4112738 235.678768,13.3322624 C234.644388,12.7515068 230.592756,9.49531707 229.415989,8.2805254 C229.807742,5.81364583 230.594262,3.36503381 231.135183,0.8623803 C231.172098,0.68655519 231.321266,0.535847953 231.419204,0.373723501" id="Fill-12" fill="#FFFFFF" sketch:type="MSShapeGroup"></path>
                <path d="M259.031783,0.40340826 C259.125201,0.414064327 259.244234,0.391991045 259.307517,0.442226791 C259.856725,0.877603253 260.402919,1.31678545 260.9348,1.77347405 C262.414422,3.04459064 263.88651,4.32331871 265.366885,5.60433023 C265.128066,7.18447277 264.715972,8.63445906 264.289564,10.0737893 C264.171284,10.474153 263.669539,10.7641502 263.570094,11.1614693 C263.471402,11.5534603 263.722275,12.0215662 263.700427,12.4508534 C263.68536,12.7621628 263.475922,13.0628162 263.309427,13.4768805 C262.812955,13.0947844 262.419695,12.7956533 262.030202,12.4904331 C261.793643,12.3047131 261.580439,12.082458 261.32806,11.9249004 C260.827068,11.6128299 260.146773,11.4499443 259.832617,11.0115232 C259.44237,10.4680638 258.996374,10.0349708 258.503669,9.61862299 C258.044866,9.23272113 257.589076,8.84453582 257.173215,8.49212445 C257.158901,7.34355263 258.485588,1.62885599 259.031783,0.40340826" id="Fill-13" fill="#FFFFFF" sketch:type="MSShapeGroup"></path>
                <path d="M86.3620085,13.3748867 C85.164901,12.6411404 81.0160831,9.2723008 80.0457404,8.24931835 C80.5972085,5.64999909 81.2315474,3.02175621 81.9510174,0.365350877 C82.1687418,0.430048428 82.3307167,0.431570724 82.4271483,0.513013523 C84.2292133,2.0345477 86.0192244,3.57130482 87.8235496,5.0913167 C88.2620119,5.46047332 88.3870716,5.88214912 88.2461911,6.43398118 C87.6962298,8.58270102 87.1628426,10.7367489 86.6158948,12.886991 C86.5804863,13.0285645 86.4795345,13.1526316 86.3620085,13.3748867" id="Fill-14" fill="#FFFFFF" sketch:type="MSShapeGroup"></path>
                <path d="M69.5120977,0.339471857 C70.5924327,0.954479167 74.503185,4.2479651 75.8426799,5.62640351 C75.7937107,6.63264072 74.711869,11.1675585 73.9954125,13.3315013 C73.7837151,13.2508196 73.5381159,13.2188514 73.3723741,13.0848894 C71.6524266,11.7049287 69.9498066,10.3028947 68.2313658,8.92141173 C67.8072176,8.58041758 67.5473043,8.21354441 67.6942118,7.63278874 C68.0136414,6.36319444 68.3089631,5.08751096 68.6253792,3.81715552 C68.9033734,2.69598501 69.1956816,1.57862025 69.5120977,0.339471857" id="Fill-15" fill="#FFFFFF" sketch:type="MSShapeGroup"></path>
                <path d="M271.421733,0.350127924 C272.456866,0.92403326 275.819917,3.74256305 277.475828,5.41404331 C277.594108,6.23684393 277.548905,7.07182292 277.3131,7.91898026 C276.920593,9.32786458 276.599657,10.7572999 276.237285,12.175318 C276.1401,12.5543695 276.000726,12.922765 275.899775,13.2363578 C275.754374,13.2850713 275.708418,13.3124726 275.662463,13.3117114 C275.615,13.3117114 275.563771,13.2903993 275.520075,13.2675649 C275.432684,13.2203737 275.34228,13.1731826 275.264682,13.1107685 C273.547748,11.7201517 271.830814,10.3295349 270.11614,8.9335901 C269.924031,8.77755482 269.750755,8.59640168 269.508169,8.37110197 C269.609121,6.97515716 270.067171,5.63782072 270.397901,4.27688871 C270.715824,2.96771473 270.916221,1.62276681 271.421733,0.350127924" id="Fill-16" fill="#FFFFFF" sketch:type="MSShapeGroup"></path>
            </g>
        </g>
    </g>
</svg>