<?xml version="1.0" encoding="UTF-8" standalone="no"?>
<svg width="161px" height="160px" viewBox="0 0 161 160" version="1.1" xmlns="http://www.w3.org/2000/svg" xmlns:xlink="http://www.w3.org/1999/xlink" xmlns:sketch="http://www.bohemiancoding.com/sketch/ns">
    <!-- Generator: Sketch Beta 3.1 (8740) - http://www.bohemiancoding.com/sketch -->
    <title>lego</title>
    <desc>Created with Sketch Beta.</desc>
    <defs></defs>
    <g id="Page-1" stroke="none" stroke-width="1" fill="none" fill-rule="evenodd" sketch:type="MSPage">
        <g id="Artboard-1" sketch:type="MSArtboardGroup" transform="translate(-550.000000, -1505.000000)">
            <g id="Imported-Layers-2" sketch:type="MSLayerGroup" transform="translate(550.000000, 1505.000000)">
                <path d="M148.819079,66.3702655 C148.556395,71.3061947 146.990175,77.4555752 145.610377,81.5631858 C140.055877,98.1153982 133.614465,108.372389 118.697956,108.372389 C114.305763,108.372389 106.512798,107.202832 103.641632,99.3699115 L102.963737,97.5122124 L101.739289,99.0654867 C97.0773509,104.989735 90.1458772,108.407788 82.7257544,108.443186 C77.0314386,108.470088 72.459886,106.558584 69.4997456,102.912566 L68.6890965,101.91292 L67.8247807,102.867257 C64.6640965,106.366018 59.1604386,108.372389 52.7260877,108.372389 C47.6729474,108.372389 43.3075877,106.652035 40.4378333,103.528496 L39.6540175,102.67469 L38.8405439,103.498761 C35.6487895,106.728496 30.6196579,108.35823 24.2982895,108.208142 C16.6267807,108.026903 11.9563684,103.732389 11.8066667,96.7221239 C11.5736404,85.9129204 22.0089825,63.1702655 26.3277368,56.2562832 C29.1325263,51.6361062 32.9880526,49.3961062 38.1202807,49.3961062 C41.6142632,49.3961062 44.0024298,50.1295575 45.4217719,51.6361062 C46.7125965,53.0067257 46.9696316,54.1635398 47.0840263,56.9444248 L47.2323158,60.5423009 L49.1261842,57.4824779 C53.7062105,50.0828319 61.2972193,49.0619469 68.817614,49.0619469 C74.0487018,49.0619469 78.6103684,50.9904425 80.4435088,53.9752212 L81.1171667,55.0739823 L82.0987018,54.2385841 C85.974,50.9352212 91.4423509,49.1157522 97.4967982,49.1157522 C104.102035,49.1157522 108.905202,50.7624779 111.767895,54.0106195 C112.421781,54.7497345 112.852526,55.2665487 113.451333,56.5253097 L114.187132,58.0729204 L115.291535,56.7631858 C119.481772,51.7918584 125.209982,49.2715044 132.312342,49.2715044 C137.940281,49.2715044 142.21243,50.7695575 145.007333,53.7260177 C148.515439,57.4329204 149.015386,62.6477876 148.819079,66.3702655 L148.819079,66.3702655 Z M1.33460526,158.929558 L159.32786,158.929558 L159.32786,0.526725664 L1.33460526,0.526725664 L1.33460526,158.929558 Z" id="Fill-1" fill="#F6EC36" sketch:type="MSShapeGroup"></path>
                <path d="M153.264939,72.4474336 C152.551737,78.2116814 148.66514,88.8920354 146.598974,93.159646 C141.060009,104.603186 133.659658,113.39469 119.401272,113.39469 C111.782018,113.39469 105.51714,110.957876 101.852272,106.27823 C96.4870175,110.991858 89.847886,113.461239 82.6946842,113.461239 C77.1853772,113.461239 72.3186579,111.865487 68.6057719,108.917522 C64.5101579,111.811681 58.9810789,113.425841 52.8517807,113.425841 C47.7336754,113.425841 43.1268158,112.016991 39.5240877,109.413097 C35.5372193,112.066549 30.3117807,113.383363 24.1782456,113.238938 C13.971693,112.996814 6.92582456,106.504779 6.72386842,97.0831858 C6.45553509,84.5692035 16.9713772,61.6566372 21.9256579,53.7231858 C25.634307,47.6162832 31.2947281,44.3270796 38.2290263,44.3270796 C45.7578947,44.3270796 48.4878333,46.4849558 49.8295,49.2290265 C55.6367982,44.2831858 63.3379649,44 68.817614,44 C74.8706491,44 78.6654474,45.6084956 81.8981579,48.1883186 C86.3581404,45.5037168 91.4720088,44.1104425 97.5674123,44.1104425 C105.360377,44.1104425 111.150728,45.9284956 115.185614,49.9299115 C119.896982,46.0021239 125.794667,44.2095575 132.395667,44.2095575 C141.123561,44.2095575 146.865895,47.3656637 150.239833,52.0707965 C154.992158,58.7044248 154.141965,65.3861947 153.264939,72.4474336 L153.264939,72.4474336 Z M1.33460526,158.929558 L159.32786,158.929558 L159.32786,0.526725664 L1.33460526,0.526725664 L1.33460526,158.929558 Z" id="Fill-2" fill="#D01012" sketch:type="MSShapeGroup"></path>
                <path d="M2.45313158,1.66371681 L158.178263,1.66371681 L158.178263,157.79115 L2.45313158,157.79115 L2.45313158,1.66371681 Z M0.248561404,160.001416 L160.381421,160.001416 L160.381421,-0.545132743 L0.248561404,-0.545132743 L0.248561404,160.001416 Z" id="Fill-3" fill="#000000" sketch:type="MSShapeGroup"></path>
                <path d="M153.197149,44.0424779 C151.075904,44.0424779 149.365632,45.7585841 149.365632,47.8895575 C149.365632,50.0176991 151.075904,51.7323894 153.197149,51.7323894 C155.325456,51.7323894 157.035728,50.0176991 157.035728,47.8895575 C157.035728,45.7585841 155.325456,44.0424779 153.197149,44.0424779 L153.197149,44.0424779 Z M153.197149,44.8014159 C154.901772,44.8014159 156.288632,46.180531 156.288632,47.8895575 C156.288632,49.5971681 154.901772,50.9833628 153.197149,50.9833628 C151.493939,50.9833628 150.124026,49.5971681 150.124026,47.8895575 C150.124026,46.180531 151.493939,44.8014159 153.197149,44.8014159 L153.197149,44.8014159 Z M155.151746,49.8959292 L154.691342,49.0945133 C154.288842,48.3936283 154.178684,48.2831858 153.836912,48.1628319 L153.836912,48.1430088 C154.509158,48.060885 154.911658,47.6276106 154.911658,47.0258407 C154.911658,46.3943363 154.509158,45.9115044 153.657553,45.9115044 L151.676123,45.9115044 L151.676123,49.8959292 L152.495246,49.8959292 L152.495246,48.2633628 L152.644947,48.2633628 C152.998018,48.2633628 153.136421,48.3030088 153.296009,48.4644248 C153.458421,48.6230088 153.698509,48.9642478 153.836912,49.2446018 L154.158912,49.8959292 L155.151746,49.8959292 L155.151746,49.8959292 Z M152.495246,47.6276106 L152.495246,46.5359292 L153.238105,46.5359292 C153.779009,46.5359292 154.057228,46.7270796 154.057228,47.0768142 C154.057228,47.3571681 153.877868,47.6276106 153.325667,47.6276106 L152.495246,47.6276106 L152.495246,47.6276106 Z" id="Fill-4" fill="#000000" sketch:type="MSShapeGroup"></path>
                <path d="M133.375789,66.0530973 C133.211965,70.1550442 127.212596,86.5585841 125.082877,90.1776991 C124.159246,91.7451327 123.119807,93.0435398 121.247123,93.0435398 C119.610289,93.0421239 118.877316,91.8782301 118.83636,90.5486726 C118.716316,86.8474336 125.491026,68.2888496 127.808579,65.2771681 C128.839544,63.6814159 129.987728,63.4251327 131.301149,63.4421239 C133.223263,63.4661947 133.422395,64.8580531 133.375789,66.0530973 M144.298368,72.7504425 C142.935518,79.5483186 139.870868,87.5893805 136.54636,93.5844248 C131.121789,103.362832 124.534912,104.732035 118.782693,104.664071 C113.029061,104.59469 106.546693,102.463717 106.497263,93.5688496 C106.460544,87.1815929 109.211667,78.1635398 111.54193,72.2548673 C115.607886,61.5419469 119.76564,52.8056637 132.902675,52.9628319 C148.220272,53.1440708 145.490333,66.8035398 144.298368,72.7504425 M95.6509474,63.219823 C93.4336667,63.219823 91.9818421,64.6258407 90.9070965,66.1465487 C88.5316404,69.4895575 83.3838772,82.8870796 82.5845263,88.3922124 C82.0351491,92.1628319 83.6578596,92.9302655 85.4345088,92.9302655 C88.2802544,92.9302655 91.4720088,89.9115044 92.5608772,84.9260177 C92.5608772,84.9260177 87.1419561,84.7957522 88.6361491,79.9773451 C90.0879737,75.300531 92.8433333,74.2881416 97.4078246,74.099823 C106.399816,73.7302655 105.511491,80.3907965 104.79264,83.9419469 C102.455316,95.4718584 94.2711491,104.736283 82.6918596,104.736283 C74.7661404,104.736283 69.8443421,100.339823 69.8443421,92.2336283 C69.8443421,86.460885 72.701386,77.3946903 74.9666842,72.0892035 C79.7882105,60.7985841 84.8441754,52.8962832 97.7255877,52.8962832 C105.450763,52.8962832 111.550404,55.68 110.65643,62.939469 C109.999719,68.2661947 107.340395,71.3953982 102.50757,71.7720354 C101.156018,71.8782301 95.6283509,71.7380531 97.4629035,66.4948673 C98.1026667,64.6612389 98.3681754,63.219823 95.6509474,63.219823 M55.3501053,83.1929204 C54.8205,84.6300885 53.8149561,87.6431858 53.004307,90.8375221 C55.635386,90.179115 57.6069298,89.7189381 60.9879298,89.8024779 C64.837807,89.8959292 67.298,91.4959292 67.298,94.6902655 C67.298,102.426903 58.7664123,104.700885 52.8489561,104.700885 C46.3510526,104.700885 40.642614,100.99115 40.642614,93.8676106 C40.642614,85.5150442 45.1605,72.8495575 49.3973421,64.4134513 C54.6030088,54.0545133 59.9188333,52.6768142 69.0774737,52.6768142 C73.1052982,52.6768142 77.7418158,54.4028319 77.7418158,58.2102655 C77.7418158,63.4916814 73.2790088,65.5079646 68.8543333,65.7614159 C66.9647018,65.8690265 64.0554035,65.9738053 62.316886,65.8506195 C62.316886,65.8506195 60.8424649,68.100531 59.2776579,72.1076106 C67.468886,70.9522124 70.9445088,72.8169912 69.5632982,77.5688496 C67.6934386,83.9872566 62.1431754,84.4106195 55.3501053,83.1929204 M29.2525702,90.6138053 C37.2686754,89.2176991 39.2825877,92.1231858 39.0312018,94.8120354 C38.2756316,102.865841 30.9049386,104.666903 24.507307,104.515398 C19.8665526,104.406372 15.6946754,102.275398 15.5788684,96.8736283 C15.3769123,87.4251327 24.9874825,65.5631858 29.5124298,58.3164602 C31.601193,54.8771681 34.1489474,53.1766372 38.2106667,53.1766372 C42.0577193,53.1766372 43.0138333,55.1575221 42.9559298,57.5292035 C42.8048158,63.8584071 32.6025,83.0980531 29.2525702,90.6138053 M132.312342,48.1642478 C124.034965,48.1642478 118.319465,51.4548673 114.446991,56.0495575 C113.793105,54.6746903 113.297395,54.0715044 112.598316,53.2785841 C109.429158,49.6863717 104.332237,48.0084956 97.4967982,48.0084956 C90.8181228,48.0084956 85.2495,50.099823 81.3812632,53.3946903 C79.3744123,50.1224779 74.5896053,47.9561062 68.817614,47.9561062 C61.2788596,47.9561062 53.0607982,49.0251327 48.1884298,56.899115 C48.0712105,54.0644248 47.8141754,52.5635398 46.2239474,50.8757522 C44.2919474,48.8254867 41.1665702,48.2902655 38.1202807,48.2902655 C32.5714298,48.2902655 28.3953158,50.72 25.3913947,55.6686726 C21.0316842,62.6520354 10.4635877,85.619823 10.7036754,96.7461947 C10.8562018,103.932035 15.6650175,109.111504 24.2714561,109.315398 C30.9953246,109.473982 36.2716053,107.674336 39.6271842,104.277522 C42.6367544,107.555398 47.2294912,109.479646 52.7246754,109.479646 C58.8469123,109.479646 65.0058684,107.637522 68.6424912,103.610619 C71.7071404,107.385487 76.5300789,109.580177 82.7285789,109.550442 C90.8378947,109.510796 97.9572018,105.658053 102.607842,99.7507965 C105.155596,106.715752 111.626667,109.479646 118.697956,109.479646 C134.186439,109.479646 140.987982,98.8021239 146.656877,81.9171681 C147.933579,78.1125664 149.638202,71.7635398 149.92207,66.4297345 C150.390947,57.5561062 146.645579,48.1642478 132.312342,48.1642478" id="Fill-5" fill="#000000" sketch:type="MSShapeGroup"></path>
                <path d="M132.902675,52.9628319 C119.76564,52.8056637 115.607886,61.5419469 111.54193,72.2548673 C109.211667,78.1635398 106.460544,87.1815929 106.497263,93.5688496 C106.546693,102.463717 113.029061,104.59469 118.782693,104.664071 C124.534912,104.732035 131.121789,103.362832 136.54636,93.5844248 C139.870868,87.5893805 142.935518,79.5483186 144.298368,72.7504425 C145.490333,66.8035398 148.220272,53.1440708 132.902675,52.9628319 L132.902675,52.9628319 Z M133.375789,66.0530973 C133.211965,70.1550442 127.212596,86.5585841 125.082877,90.1776991 C124.159246,91.7451327 123.119807,93.0435398 121.247123,93.0435398 C119.610289,93.0421239 118.877316,91.8782301 118.83636,90.5486726 C118.716316,86.8474336 125.491026,68.2888496 127.808579,65.2771681 C128.839544,63.6814159 129.987728,63.4251327 131.301149,63.4421239 C133.223263,63.4661947 133.422395,64.8580531 133.375789,66.0530973 L133.375789,66.0530973 Z" id="Fill-6" fill="#FFFFFF" sketch:type="MSShapeGroup"></path>
                <path d="M95.6509474,63.219823 C93.4336667,63.219823 91.9818421,64.6258407 90.9070965,66.1465487 C88.5316404,69.4895575 83.3838772,82.8870796 82.5845263,88.3922124 C82.0351491,92.1628319 83.6578596,92.9302655 85.4345088,92.9302655 C88.2802544,92.9302655 91.4720088,89.9115044 92.5608772,84.9260177 C92.5608772,84.9260177 87.1419561,84.7957522 88.6361491,79.9773451 C90.0879737,75.300531 92.8433333,74.2881416 97.4078246,74.099823 C106.399816,73.7302655 105.511491,80.3907965 104.79264,83.9419469 C102.455316,95.4718584 94.2711491,104.736283 82.6918596,104.736283 C74.7661404,104.736283 69.8443421,100.339823 69.8443421,92.2336283 C69.8443421,86.460885 72.701386,77.3946903 74.9666842,72.0892035 C79.7882105,60.7985841 84.8441754,52.8962832 97.7255877,52.8962832 C105.450763,52.8962832 111.550404,55.68 110.65643,62.939469 C109.999719,68.2661947 107.340395,71.3953982 102.50757,71.7720354 C101.156018,71.8782301 95.6283509,71.7380531 97.4629035,66.4948673 C98.1026667,64.6612389 98.3681754,63.219823 95.6509474,63.219823" id="Fill-7" fill="#FFFFFF" sketch:type="MSShapeGroup"></path>
                <path d="M55.3501053,83.1929204 C54.8205,84.6300885 53.8149561,87.6431858 53.004307,90.8375221 C55.635386,90.179115 57.6069298,89.7189381 60.9879298,89.8024779 C64.837807,89.8959292 67.298,91.4959292 67.298,94.6902655 C67.298,102.426903 58.7664123,104.700885 52.8489561,104.700885 C46.3510526,104.700885 40.642614,100.99115 40.642614,93.8676106 C40.642614,85.5150442 45.1605,72.8495575 49.3973421,64.4134513 C54.6030088,54.0545133 59.9188333,52.6768142 69.0774737,52.6768142 C73.1052982,52.6768142 77.7418158,54.4028319 77.7418158,58.2102655 C77.7418158,63.4916814 73.2790088,65.5079646 68.8543333,65.7614159 C66.9647018,65.8690265 64.0554035,65.9738053 62.316886,65.8506195 C62.316886,65.8506195 60.8424649,68.100531 59.2776579,72.1076106 C67.468886,70.9522124 70.9445088,72.8169912 69.5632982,77.5688496 C67.6934386,83.9872566 62.1431754,84.4106195 55.3501053,83.1929204" id="Fill-8" fill="#FFFFFF" sketch:type="MSShapeGroup"></path>
                <path d="M29.2525702,90.6138053 C37.2686754,89.2176991 39.2825877,92.1231858 39.0312018,94.8120354 C38.2756316,102.865841 30.9049386,104.666903 24.507307,104.515398 C19.8665526,104.406372 15.6946754,102.275398 15.5788684,96.8736283 C15.3769123,87.4251327 24.9874825,65.5631858 29.5124298,58.3164602 C31.601193,54.8771681 34.1489474,53.1766372 38.2106667,53.1766372 C42.0577193,53.1766372 43.0138333,55.1575221 42.9559298,57.5292035 C42.8048158,63.8584071 32.6025,83.0980531 29.2525702,90.6138053" id="Fill-9" fill="#FFFFFF" sketch:type="MSShapeGroup"></path>
            </g>
        </g>
    </g>
</svg>