<?xml version="1.0" encoding="UTF-8" standalone="no"?>
<svg width="200px" height="39px" viewBox="0 0 200 39" version="1.1" xmlns="http://www.w3.org/2000/svg" xmlns:xlink="http://www.w3.org/1999/xlink" xmlns:sketch="http://www.bohemiancoding.com/sketch/ns">
    <!-- Generator: Sketch Beta 3.1 (8740) - http://www.bohemiancoding.com/sketch -->
    <title>logo-amust</title>
    <desc>Created with Sketch Beta.</desc>
    <defs></defs>
    <g id="Page-1" stroke="none" stroke-width="1" fill="none" fill-rule="evenodd" sketch:type="MSPage">
        <g id="Artboard-1" sketch:type="MSArtboardGroup" transform="translate(-686.000000, -90.000000)" fill="#0B0B0A">
            <g id="Imported-Layers" sketch:type="MSLayerGroup" transform="translate(686.000000, 90.000000)">
                <path d="M47.4273072,21.8593725 L50.7635904,21.8593725 L57.8118837,38.558 L54.02933,38.558 L52.5256637,34.8392353 L45.5714286,34.8392353 L44.0677623,38.558 L40.3790139,38.558 L47.4273072,21.8593725 L47.4273072,21.8593725 Z M51.2333755,31.6180392 L49.0485461,26.2413922 L46.863464,31.6180392 L51.2333755,31.6180392 L51.2333755,31.6180392 Z" id="Fill-1" sketch:type="MSShapeGroup"></path>
                <path d="M59.9737042,25.8623529 L63.5451327,25.8623529 L63.5451327,28.4202941 C64.2733249,26.6675882 65.4480405,25.5307255 67.562579,25.625549 L67.562579,29.3914706 L67.3744627,29.3914706 C65.0017699,29.3914706 63.5451327,30.8362549 63.5451327,33.8680588 L63.5451327,38.558 L59.9737042,38.558 L59.9737042,25.8623529" id="Fill-2" sketch:type="MSShapeGroup"></path>
                <path d="M69.7946903,21.2672353 L73.365866,21.2672353 L73.365866,27.6624706 C74.1881163,26.5964706 75.245512,25.625549 77.0546144,25.625549 C79.7565107,25.625549 81.3307206,27.4256667 81.3307206,30.3389412 L81.3307206,38.558 L77.759292,38.558 L77.759292,31.4758039 C77.759292,29.7705098 76.9605563,28.8941569 75.5979772,28.8941569 C74.2351454,28.8941569 73.365866,29.7705098 73.365866,31.4758039 L73.365866,38.558 L69.7946903,38.558 L69.7946903,21.2672353" id="Fill-3" sketch:type="MSShapeGroup"></path>
                <path d="M84.502402,21.2672353 L88.2614412,21.2672353 L88.2614412,24.4647255 L84.502402,24.4647255 L84.502402,21.2672353 Z M84.5964602,25.8623529 L88.1676359,25.8623529 L88.1676359,38.558 L84.5964602,38.558 L84.5964602,25.8623529 Z" id="Fill-4" sketch:type="MSShapeGroup"></path>
                <path d="M92.1145386,34.9577647 L92.1145386,28.9415686 L90.6108723,28.9415686 L90.6108723,25.8623529 L92.1145386,25.8623529 L92.1145386,22.617451 L95.6857143,22.617451 L95.6857143,25.8623529 L98.6460177,25.8623529 L98.6460177,28.9415686 L95.6857143,28.9415686 L95.6857143,34.3656275 C95.6857143,35.1945686 96.0381795,35.5973137 96.8369153,35.5973137 C97.4948167,35.5973137 98.0821745,35.4313725 98.5989886,35.1471569 L98.5989886,38.0369804 C97.8472819,38.4868824 96.9780025,38.771098 95.7797724,38.771098 C93.5946903,38.771098 92.1145386,37.8947451 92.1145386,34.9577647" id="Fill-5" sketch:type="MSShapeGroup"></path>
                <path d="M100.314286,32.2812941 L100.314286,32.2338824 C100.314286,28.6099412 102.875095,25.625549 106.540329,25.625549 C110.745891,25.625549 112.672314,28.9178627 112.672314,32.518098 C112.672314,32.8023137 112.648799,33.1339412 112.625537,33.4655686 L103.861947,33.4655686 C104.214412,35.0997451 105.342099,35.9526471 106.939823,35.9526471 C108.138053,35.9526471 109.007332,35.5736078 109.993932,34.6498431 L112.037927,36.4736667 C110.863211,37.9421569 109.171681,38.8422157 106.892794,38.8422157 C103.11024,38.8422157 100.314286,36.1657451 100.314286,32.2812941 L100.314286,32.2812941 Z M109.195196,31.2152941 C108.983818,29.6048235 108.043995,28.5151176 106.540329,28.5151176 C105.060177,28.5151176 104.096839,29.5811176 103.814918,31.2152941 L109.195196,31.2152941 L109.195196,31.2152941 Z" id="Fill-6" sketch:type="MSShapeGroup"></path>
                <path d="M115.327434,21.2672353 L118.898609,21.2672353 L118.898609,30.4811765 L123.080657,25.8623529 L127.356764,25.8623529 L122.563843,30.8599608 L127.521113,38.558 L123.433123,38.558 L120.143869,33.3707451 L118.898609,34.6972549 L118.898609,38.558 L115.327434,38.558 L115.327434,21.2672353" id="Fill-7" sketch:type="MSShapeGroup"></path>
                <path d="M129.589128,34.9577647 L129.589128,28.9415686 L128.085461,28.9415686 L128.085461,25.8623529 L129.589128,25.8623529 L129.589128,22.617451 L133.160303,22.617451 L133.160303,25.8623529 L136.120607,25.8623529 L136.120607,28.9415686 L133.160303,28.9415686 L133.160303,34.3656275 C133.160303,35.1945686 133.512516,35.5973137 134.311504,35.5973137 C134.969406,35.5973137 135.556764,35.4313725 136.073578,35.1471569 L136.073578,38.0369804 C135.321618,38.4868824 134.452339,38.771098 133.254109,38.771098 C131.069279,38.771098 129.589128,37.8947451 129.589128,34.9577647" id="Fill-8" sketch:type="MSShapeGroup"></path>
                <path d="M146.176233,21.977902 L150.076359,21.977902 L154.399241,28.9889804 L158.722377,21.977902 L162.622503,21.977902 L162.622503,38.558 L159.027813,38.558 L159.027813,27.7335882 L154.399241,34.8155294 L154.305436,34.8155294 L149.723894,27.804451 L149.723894,38.558 L146.176233,38.558 L146.176233,21.977902" id="Fill-9" sketch:type="MSShapeGroup"></path>
                <path d="M166.100126,34.0814118 L166.100126,25.8623529 L169.671302,25.8623529 L169.671302,32.944549 C169.671302,34.6498431 170.470038,35.5261961 171.83287,35.5261961 C173.195449,35.5261961 174.064728,34.6498431 174.064728,32.944549 L174.064728,25.8623529 L177.635904,25.8623529 L177.635904,38.558 L174.064728,38.558 L174.064728,36.7578824 C173.242478,37.8236275 172.185335,38.7948039 170.376233,38.7948039 C167.674336,38.7948039 166.100126,36.9946863 166.100126,34.0814118" id="Fill-10" sketch:type="MSShapeGroup"></path>
                <path d="M179.844501,36.8764118 L181.371681,34.5076078 C182.73426,35.5024902 184.167383,36.0235098 185.342099,36.0235098 C186.37598,36.0235098 186.845765,35.6447255 186.845765,35.0760392 L186.845765,35.0288824 C186.845765,34.247098 185.62402,33.9865882 184.237927,33.5601373 C182.475853,33.0391176 180.478887,32.2101765 180.478887,29.7468039 L180.478887,29.6993922 C180.478887,27.1177451 182.546397,25.6727059 185.083692,25.6727059 C186.681416,25.6727059 188.419975,26.2176863 189.782807,27.141451 L188.419975,29.6282745 C187.174716,28.8941569 185.929456,28.444 185.013401,28.444 C184.143869,28.444 183.697598,28.8230392 183.697598,29.3203529 L183.697598,29.3677647 C183.697598,30.0784314 184.895828,30.4100588 186.258407,30.8836667 C188.020733,31.4758039 190.064728,32.3287059 190.064728,34.6498431 L190.064728,34.6972549 C190.064728,37.5157059 187.973704,38.7948039 185.248293,38.7948039 C183.48622,38.7948039 181.512516,38.2026667 179.844501,36.8764118" id="Fill-11" sketch:type="MSShapeGroup"></path>
                <path d="M192.978255,34.9577647 L192.978255,28.9415686 L191.474589,28.9415686 L191.474589,25.8623529 L192.978255,25.8623529 L192.978255,22.617451 L196.549684,22.617451 L196.549684,25.8623529 L199.509735,25.8623529 L199.509735,28.9415686 L196.549684,28.9415686 L196.549684,34.3656275 C196.549684,35.1945686 196.901896,35.5973137 197.700632,35.5973137 C198.358534,35.5973137 198.945891,35.4313725 199.462705,35.1471569 L199.462705,38.0369804 C198.710999,38.4868824 197.841719,38.771098 196.643489,38.771098 C194.458407,38.771098 192.978255,37.8947451 192.978255,34.9577647" id="Fill-12" sketch:type="MSShapeGroup"></path>
                <path d="M13.4245259,0.00331372549 C11.4131479,0.00331372549 9.78331226,1.64692157 9.78331226,3.67441176 C9.78331226,5.70190196 11.4131479,7.345 13.4245259,7.345 C15.4359039,7.345 17.0654867,5.70190196 17.0654867,3.67441176 C17.0654867,1.64692157 15.4359039,0.00331372549 13.4245259,0.00331372549 L13.4245259,0.00331372549 Z M13.4245259,6.65778431 C11.7896334,6.65778431 10.4644753,5.32209804 10.4644753,3.67441176 C10.4644753,2.02672549 11.7896334,0.69027451 13.4245259,0.69027451 C15.0591656,0.69027451 16.383818,2.02672549 16.383818,3.67441176 C16.383818,5.32209804 15.0591656,6.65778431 13.4245259,6.65778431 L13.4245259,6.65778431 Z" id="Fill-13" sketch:type="MSShapeGroup"></path>
                <path d="M23.248799,0.00331372549 C21.237421,0.00331372549 19.6070796,1.64692157 19.6070796,3.67441176 C19.6070796,5.70190196 21.237421,7.345 23.248799,7.345 C25.2591656,7.345 26.8897598,5.70190196 26.8897598,3.67441176 C26.8897598,1.64692157 25.2591656,0.00331372549 23.248799,0.00331372549 L23.248799,0.00331372549 Z M23.248799,6.65778431 C21.6139064,6.65778431 20.2897598,5.32209804 20.2897598,3.67441176 C20.2897598,2.02672549 21.6139064,0.69027451 23.248799,0.69027451 C24.8831858,0.69027451 26.208091,2.02672549 26.208091,3.67441176 C26.208091,5.32209804 24.8831858,6.65778431 23.248799,6.65778431 L23.248799,6.65778431 Z" id="Fill-14" sketch:type="MSShapeGroup"></path>
                <path d="M19.9347661,3.86201961 L20.0437421,3.19009804 L20.2376738,2.28392157 C20.2376738,2.28392157 20.014665,1.96172549 19.882933,2.23880392 C19.8025284,2.41009804 19.5597977,2.64894118 19.3466498,2.52607843 C19.0310999,2.34509804 18.9547408,2.31170588 18.912263,2.29233333 C18.7135272,2.19801961 18.3304678,2.19801961 18.3304678,2.19801961 C18.3304678,2.19801961 17.9466498,2.19801961 17.7476612,2.29233333 C17.7051833,2.31170588 17.6288243,2.34509804 17.3132743,2.52607843 C17.1003793,2.64894118 16.8573957,2.41009804 16.7764855,2.23880392 C16.6452592,1.96172549 16.4230088,2.28392157 16.4230088,2.28392157 L16.616182,3.19009804 L16.7254109,3.86201961 L16.6242731,4.71390196 C16.6242731,4.71390196 16.5082174,5.174 16.6859671,4.96345098 C16.8639697,4.75239216 16.8412137,4.95376471 16.9585335,4.56172549 C17.0558786,4.23519608 17.1231353,4.05523529 17.3367889,3.78427451 C17.65689,3.37923529 17.8917826,3.4192549 17.9800253,3.40090196 C18.0938053,3.37770588 18.3304678,3.37770588 18.3304678,3.37770588 C18.3304678,3.37770588 18.5661188,3.37770588 18.679646,3.40090196 C18.7681416,3.4192549 19.003287,3.37923529 19.3231353,3.78427451 C19.5375474,4.05523529 19.6040455,4.23519608 19.7011378,4.56172549 C19.8187105,4.95376471 19.7959545,4.75239216 19.973957,4.96345098 C20.1522124,5.174 20.0356511,4.71390196 20.0356511,4.71390196 L19.9347661,3.86201961" id="Fill-15" sketch:type="MSShapeGroup"></path>
                <path d="M28.2571429,2.90715686 L28.1633375,3.92982353 L28.0561315,3.96092157 C28.0561315,3.96092157 27.6262958,3.92396078 27.331732,4.21352941 C27.0369153,4.50284314 26.6533502,5.10594118 26.4318584,5.45847059 C26.2101138,5.8107451 25.8983565,5.83827451 25.8983565,5.83827451 L26.4874842,4.33511765 L26.5410872,3.72105882 L26.3403287,2.95584314 L25.9367889,1.63570588 L25.712263,1.36296078 C25.712263,1.36296078 25.9585335,1.21231373 26.183818,1.50188235 C26.4098609,1.79196078 26.7120101,2.35478431 27.0677623,2.56533333 C27.4247788,2.77664706 27.5484197,2.83909804 27.8275601,2.8467451 C28.1064475,2.85490196 28.1757269,2.86203922 28.1757269,2.86203922 L28.2571429,2.90715686" id="Fill-16" sketch:type="MSShapeGroup"></path>
                <path d="M8.41517067,2.90715686 L8.50897598,3.92982353 L8.6159292,3.96092157 C8.6159292,3.96092157 9.04652339,3.92396078 9.3403287,4.21352941 C9.6346397,4.50284314 10.0184576,5.10594118 10.2402023,5.45847059 C10.4619469,5.8107451 10.7737042,5.83827451 10.7737042,5.83827451 L10.1850822,4.33511765 L10.1302149,3.72105882 L10.331732,2.95584314 L10.7347661,1.63570588 L10.9595449,1.36296078 C10.9595449,1.36296078 10.7135272,1.21231373 10.4882427,1.50188235 C10.2621997,1.79196078 9.96005057,2.35478431 9.60404551,2.56533333 C9.24778761,2.77664706 9.12389381,2.83909804 8.84500632,2.8467451 C8.56586599,2.85490196 8.49608091,2.86203922 8.49608091,2.86203922 L8.41517067,2.90715686" id="Fill-17" sketch:type="MSShapeGroup"></path>
                <path id="Fill-18" sketch:type="MSShapeGroup" d="M28.3802781,2.90715686 L28.2864728,3.93084314 L28.3802781,3.9912549 L28.5165613,4.01878431 C28.5165613,4.01878431 28.5742099,3.89898039 28.6128951,3.72360784 C28.6513274,3.5484902 28.676359,3.39758824 28.676359,3.39758824 C28.676359,3.39758824 28.7135272,3.13019608 28.6981037,3.04607843 C28.6824273,2.96247059 28.645512,2.90715686 28.645512,2.90715686 L28.4627054,2.87860784 L28.3802781,2.90715686"></path>
                <path id="Fill-19" sketch:type="MSShapeGroup" d="M8.28950695,2.90817647 L8.38331226,3.93186275 L8.28950695,3.99278431 L8.15372946,4.02056863 C8.15372946,4.02056863 8.09506953,3.9005098 8.05714286,3.72564706 C8.01795196,3.5495098 7.99266751,3.39860784 7.99266751,3.39860784 C7.99266751,3.39886275 7.9562579,3.13172549 7.97168142,3.04709804 C7.98735777,2.9634902 8.02376738,2.90817647 8.02376738,2.90817647 L8.20632111,2.87962745 L8.28950695,2.90817647"></path>
                <path d="M33.1855879,24.3362549 C30.6007585,23.6485294 29.4371681,23.277902 29.4371681,23.277902 L29.4348925,23.2763725 C28.0836915,22.8315686 26.6804046,22.3714706 25.3451327,21.9355882 L25.3319848,21.931 C25.3319848,21.931 25.3319848,20.940451 25.4730721,19.2537647 C25.6134008,17.5665686 26.0543616,15.2757647 26.0543616,15.2757647 L25.3319848,15.0308039 C23.3390645,16.3195882 20.9663717,17.0674706 18.4189633,17.0674706 C15.8718078,17.0674706 13.499115,16.3195882 11.505689,15.0308039 L10.783818,15.2757647 C10.783818,15.2757647 11.2242731,17.5665686 11.3651075,19.2537647 C11.505689,20.940451 11.505689,21.931 11.505689,21.931 L11.4920354,21.9355882 C10.1580278,22.3714706 8.7539823,22.8315686 7.40379267,23.2763725 L7.40075853,23.277902 C7.40075853,23.277902 6.23716814,23.6485294 3.65309735,24.3362549 C1.06776233,25.0229608 -0.0341340076,25.2419216 -0.0341340076,25.2419216 L-0.0341340076,38.558 L36.9150442,38.558 L36.8723135,26.3976471 L36.8723135,25.2419216 C36.8723135,25.2419216 35.7699115,25.0229608 33.1855879,24.3362549" id="Fill-20" sketch:type="MSShapeGroup"></path>
            </g>
        </g>
    </g>
</svg>